<svg width="215" height="280" viewBox="0 0 215 280" fill="none" xmlns="http://www.w3.org/2000/svg">
<path d="M67.1624 70.1964C67.1665 73.9115 65.882 77.513 63.5279 80.387C61.1738 83.261 57.8958 85.2296 54.2527 85.9572C50.6096 86.6849 46.8269 86.1265 43.5495 84.3773C40.272 82.6281 37.7026 79.7963 36.2793 76.3647C34.856 72.9331 34.6669 69.1141 35.7442 65.5587C36.8216 62.0033 39.0986 58.9315 42.1873 56.8671C45.2759 54.8027 48.9849 53.8733 52.6821 54.2375C56.3793 54.6017 59.8357 56.2368 62.4622 58.8642C63.9524 60.3512 65.1346 62.1175 65.9412 64.0621C66.7477 66.0067 67.1627 68.0912 67.1624 70.1964Z" fill="#54963E"/>
<path d="M53.3589 84.6347C53.3624 88.3483 52.078 91.9482 49.7246 94.8209C47.3711 97.6935 44.0942 99.6611 40.4525 100.388C36.8107 101.115 33.0295 100.557 29.7534 98.8083C26.4772 97.0596 23.9089 94.2289 22.4862 90.7987C21.0634 87.3684 20.8743 83.5509 21.9511 79.9968C23.0279 76.4427 25.3039 73.3721 28.3912 71.3082C31.4785 69.2444 35.186 68.3151 38.8818 68.6787C42.5776 69.0424 46.0328 70.6765 48.6587 73.3025C50.1489 74.7894 51.3311 76.5558 52.1376 78.5004C52.9442 80.4449 53.3592 82.5295 53.3589 84.6347Z" fill="#54963E"/>
<path d="M41.1305 77.1789C40.2218 77.1548 39.3364 76.8864 38.5672 76.4019C37.7812 75.9286 37.0896 75.3138 36.5274 74.5887C35.9714 73.8593 35.5259 73.052 35.2053 72.1928C34.8863 71.3249 34.6901 70.4167 34.6225 69.4946H34.547H34.466C34.3791 69.5107 34.2897 69.5089 34.2035 69.4895C34.1172 69.47 34.0358 69.4332 33.9642 69.3813C33.8534 69.3063 33.7676 69.1999 33.7179 69.0757C33.6682 68.9516 33.6568 68.8154 33.6853 68.6847C33.7138 68.554 33.7807 68.4348 33.8776 68.3426C33.9744 68.2503 34.0967 68.1892 34.2286 68.1671L34.4336 68.1293L34.6441 68.097C34.6441 67.9621 34.6441 67.8325 34.6873 67.6976C34.7304 67.5627 34.7304 67.4386 34.7574 67.3091C34.7937 67.1338 34.8961 66.9792 35.0434 66.8774C35.1172 66.8281 35.2001 66.7942 35.2872 66.7775C35.3743 66.7608 35.4639 66.7617 35.5507 66.7803C35.6383 66.796 35.7219 66.8295 35.7961 66.8786C35.8703 66.9278 35.9337 66.9917 35.9824 67.0663C36.0802 67.216 36.1151 67.3982 36.0795 67.5735L36.0471 67.7462C36.0471 67.8056 36.0471 67.8649 36.0202 67.9243C37.396 67.7861 38.7853 67.8754 40.1321 68.1887C41.5088 68.5079 42.754 69.2426 43.6991 70.2933C44.1897 70.8539 44.5475 71.5179 44.746 72.2359C44.939 72.9116 44.952 73.6259 44.7838 74.3081C44.6332 74.8736 44.3564 75.3976 43.9741 75.8406C43.5918 76.2837 43.114 76.6343 42.5767 76.866C42.3457 76.9642 42.1052 77.0383 41.859 77.0872C41.6193 77.1392 41.3755 77.1699 41.1305 77.1789ZM35.9662 69.3057C36.0111 70.1132 36.1747 70.9096 36.4519 71.6693C36.7248 72.4212 37.1105 73.1272 37.5959 73.7631C38.1398 74.4754 38.8369 75.0563 39.6357 75.4629C40.0019 75.6652 40.4073 75.7864 40.8245 75.818C41.2416 75.8497 41.6607 75.7911 42.0532 75.6464C42.3994 75.4957 42.7072 75.2691 42.9539 74.9832C43.2005 74.6974 43.3796 74.3596 43.4778 73.9951C43.5901 73.5248 43.5752 73.0331 43.4347 72.5705C43.2908 72.0646 43.0344 71.5979 42.6846 71.2052C41.87 70.3139 40.7926 69.7053 39.6087 69.4676C38.4106 69.2226 37.1813 69.1679 35.9662 69.3057Z" fill="#9DC569"/>
<path d="M95.5791 174.354L95.7032 183.398L95.8219 192.448C95.8445 194.152 95.7779 195.856 95.6223 197.553C95.4626 199.248 95.2049 200.933 94.8506 202.598C94.5442 204.192 94.0665 205.748 93.426 207.239C92.8324 208.496 92.1147 209.327 91.2675 209.311C90.9535 210.257 90.4168 211.114 89.7025 211.81C89.0908 212.418 88.289 212.799 87.4307 212.889C87.203 212.915 86.9731 212.915 86.7454 212.889C86.4299 212.842 86.1216 212.755 85.828 212.63C85.588 213.001 85.3074 213.345 84.9916 213.655C84.5879 214.056 84.1142 214.38 83.5939 214.61C83.3376 214.732 83.0649 214.815 82.7845 214.858C82.6376 214.878 82.4888 214.878 82.342 214.858C82.0238 214.811 81.7219 214.687 81.4624 214.497C81.2928 214.378 81.1388 214.238 81.0037 214.081C80.5504 213.59 80.3723 212.883 80.4155 211.578C80.4587 210.272 80.7123 208.34 81.1332 205.447C81.171 205.204 81.2303 204.784 81.3167 204.228C81.403 203.672 81.5163 202.976 81.6512 202.177C81.6944 201.918 81.7268 201.735 81.7538 201.594C81.7808 201.454 81.797 201.362 81.8077 201.271C81.9468 200.348 82.0261 199.418 82.0452 198.486C82.0648 197.741 82.0468 196.995 81.9912 196.252C81.9319 195.426 81.8617 194.601 81.7484 193.781C81.6396 192.96 81.4701 192.148 81.2411 191.352C81.1133 190.876 80.9323 190.417 80.7015 189.982C80.478 189.536 80.0914 189.194 79.6222 189.026C79.3875 188.959 79.1412 188.942 78.8994 188.976C78.6576 189.011 78.4258 189.096 78.2192 189.226C77.7951 189.474 77.452 189.839 77.2317 190.278C77.0078 190.756 76.862 191.266 76.8 191.789C76.7244 192.329 76.692 192.869 76.6435 193.365C76.5679 194.12 76.4816 194.876 76.3521 195.621C76.2184 196.37 76.0382 197.111 75.8124 197.839C75.5394 198.928 75.031 199.945 74.3231 200.817C74.0768 201.126 73.7321 201.342 73.3463 201.427C73.2314 201.437 73.1159 201.437 73.001 201.427C72.8162 201.423 72.6335 201.386 72.4613 201.319C72.1636 201.171 71.9008 200.961 71.6905 200.703C71.4802 200.445 71.3272 200.146 71.2418 199.824C70.9425 198.916 70.8055 197.963 70.8371 197.007C70.8371 196.554 70.8371 196.101 70.8371 195.653C70.8371 195.205 70.8371 194.746 70.8371 194.293L70.6752 184.294L70.5187 174.289L83.0381 174.316L95.5791 174.354Z" fill="#FFBD8D"/>
<path d="M35.0599 139.969L21.1806 191.973L7.30133 243.977H67.9881C70.7079 226.644 73.4294 209.309 76.1527 191.973C78.8761 174.636 81.5994 157.302 84.3227 139.969H35.0599Z" fill="#9DC569"/>
<path d="M65.2361 76.0226C63.4771 75.6775 61.6914 75.4861 59.8992 75.4506C57.6063 75.4065 55.3165 75.6366 53.0782 76.136C47.7092 77.3883 42.7881 80.0934 38.8536 83.9552C36.5383 86.1759 34.531 88.6968 32.8853 91.4507L26.6148 101.914L20.3389 112.405C18.8375 114.903 17.5867 117.544 16.6046 120.288C15.6258 123.03 14.942 125.869 14.5648 128.755C14.1061 132.301 14.0792 136.181 15.0721 139.748C16.034 143.52 18.4031 146.781 21.6933 148.862C23.1438 149.775 24.7304 150.451 26.3935 150.864C28.0625 151.273 29.782 151.438 31.4984 151.355L54.2222 150.233L76.9461 149.099L76.4064 133.741L75.8668 118.378L86.368 117.623L89.962 117.364C89.962 117.364 89.2389 120.731 88.1974 125.712C87.1559 130.693 85.8014 137.292 84.5333 143.762C83.0115 151.517 81.5923 159.18 80.5616 164.905C79.5309 170.631 78.8726 174.413 78.8726 174.419L87.2098 174.575L95.5525 174.737C98.3802 153.983 100.371 135.997 101.591 122.819C102.811 109.642 103.264 101.272 103.005 99.7394C102.678 97.8482 102.24 95.9779 101.694 94.138C101.262 92.6648 100.922 91.7205 100.922 91.7205C100.169 90.1731 99.2877 88.6912 98.2884 87.2901C96.9052 85.3878 95.2102 83.733 93.2753 82.3957C91.6995 81.3127 89.984 80.4486 88.1758 79.827C86.7611 79.3439 85.3026 79.0005 83.821 78.8017L74.5339 77.4095L65.2361 76.0226Z" fill="#F4ECE5"/>
<path d="M170.048 2.45054C157.492 -0.648924 144.262 0.490901 132.421 5.6925C120.58 10.8941 110.791 19.8655 104.578 31.2095C98.3664 42.5535 96.08 55.6334 98.0753 68.4121C100.071 81.1908 106.236 92.951 115.61 101.861L73.3789 162.192L31.142 222.522L35.4591 225.555L39.7761 228.593L81.8727 168.527L123.926 108.455C131.068 113.122 139.142 116.173 147.584 117.397C156.027 118.62 164.635 117.987 172.807 115.541C180.98 113.094 188.52 108.894 194.902 103.233C201.284 97.572 206.354 90.5864 209.757 82.7639C213.161 74.9414 214.816 66.4704 214.608 57.9421C214.4 49.4137 212.333 41.0336 208.552 33.3863C204.771 25.7391 199.367 19.0091 192.717 13.666C186.067 8.32287 178.33 4.49534 170.048 2.45054ZM144.281 106.793C133.306 104.082 123.611 97.6491 116.847 88.5907C110.084 79.5324 106.67 68.4091 107.188 57.1161C107.707 45.8232 112.125 35.0593 119.689 26.6585C127.254 18.2577 137.498 12.7398 148.675 11.0449C159.852 9.35011 171.271 11.5832 180.986 17.3638C190.701 23.1443 198.112 32.1146 201.954 42.7463C205.797 53.378 205.835 65.0132 202.061 75.6694C198.286 86.3257 190.934 95.3436 181.256 101.187C175.766 104.51 169.673 106.716 163.328 107.678C156.983 108.641 150.51 108.34 144.281 106.793Z" fill="#1C2A10"/>
<path d="M76.9458 149.099C84.2201 148.285 90.5013 147.453 95.2555 146.757C100.01 146.061 103.237 145.505 104.429 145.23C104.758 145.155 105.169 145.041 105.773 144.885C106.377 144.728 107.176 144.529 108.293 144.264C109.043 144.086 109.523 143.984 109.912 143.887C110.257 143.797 110.595 143.68 110.921 143.536C111.502 143.288 112.058 142.983 112.578 142.624C113.148 142.246 113.574 141.687 113.786 141.037C113.921 140.537 113.921 140.01 113.786 139.51C113.694 139.133 113.553 138.771 113.365 138.431L114.671 137.756C115.146 137.513 115.659 137.217 116.204 136.947C117.362 136.363 118.475 135.694 119.533 134.945C120.019 134.633 120.378 134.158 120.548 133.607C120.666 133.176 120.684 132.724 120.602 132.284C120.569 132.072 120.513 131.864 120.435 131.664C120.303 131.327 120.109 131.017 119.863 130.752C119.701 130.583 119.52 130.435 119.323 130.309C120.381 129.81 121.208 128.923 121.633 127.833C121.82 127.382 121.907 126.897 121.889 126.41C121.87 125.922 121.746 125.445 121.525 125.01C121.193 124.446 120.69 124.002 120.089 123.742C119.432 123.449 118.713 123.321 117.996 123.37C117.982 123.049 117.924 122.731 117.823 122.425C117.646 121.865 117.319 121.363 116.878 120.974C116.594 120.724 116.267 120.529 115.913 120.396C115.607 120.285 115.287 120.219 114.963 120.202C114.638 120.178 114.311 120.2 113.991 120.267C113.763 120.31 113.539 120.375 113.322 120.461L113.198 120.51L113.133 120.537C112.594 120.78 108.503 122.215 104.499 123.499C100.495 124.784 96.5884 125.906 96.4481 125.517C96.4103 125.42 96.5992 125.231 97.2359 124.859C97.8727 124.487 98.9682 123.936 100.744 123.122L103.156 119.673L105.568 116.23L90.7496 117.31L75.9313 118.389L76.471 133.752L76.9458 149.099Z" fill="#FFBD8D"/>
<path d="M91.2621 67.8096C91.2587 71.1161 90.1091 74.3192 88.0092 76.8733C85.9093 79.4273 82.9889 81.1745 79.7454 81.8171C76.502 82.4597 73.136 81.958 70.2209 80.3975C67.3058 78.837 65.0218 76.3142 63.758 73.2588C62.4941 70.2034 62.3285 66.8043 63.2895 63.6405C64.2504 60.4767 66.2784 57.7439 69.028 55.9075C71.7776 54.0711 75.0789 53.2446 78.3694 53.569C81.66 53.8933 84.7363 55.3483 87.0746 57.6862C88.4044 59.015 89.4589 60.5933 90.1774 62.3305C90.896 64.0677 91.2646 65.9297 91.2621 67.8096Z" fill="#FFBD8D"/>
<path d="M75.1599 67.4452C75.1594 67.7226 75.0487 67.9885 74.8523 68.1845C74.6516 68.3758 74.3849 68.4826 74.1076 68.4826C73.8303 68.4826 73.5636 68.3758 73.3629 68.1845C73.2652 68.0872 73.1876 67.9716 73.1347 67.8442C73.0818 67.7169 73.0546 67.5804 73.0546 67.4425C73.0546 67.3046 73.0818 67.1681 73.1347 67.0407C73.1876 66.9134 73.2652 66.7978 73.3629 66.7005C73.5144 66.565 73.7011 66.4751 73.9015 66.441C74.1018 66.407 74.3077 66.4302 74.4955 66.508C74.6832 66.5858 74.8452 66.7151 74.9627 66.8808C75.0803 67.0466 75.1486 67.2422 75.1599 67.4452Z" fill="#2B3D0A"/>
<path d="M84.5329 66.182C84.5347 66.3903 84.4742 66.5944 84.3593 66.7683C84.2444 66.9421 84.0803 67.0776 83.8879 67.1576C83.6955 67.2376 83.4836 67.2583 83.2793 67.2172C83.0751 67.176 82.8877 67.0749 82.7413 66.9266C82.55 66.7259 82.4432 66.4593 82.4432 66.182C82.4432 65.9047 82.55 65.638 82.7413 65.4373C82.8386 65.3395 82.9542 65.262 83.0815 65.2091C83.2089 65.1561 83.3454 65.1289 83.4833 65.1289C83.6212 65.1289 83.7577 65.1561 83.8851 65.2091C84.0124 65.262 84.128 65.3395 84.2253 65.4373C84.4201 65.6365 84.5303 65.9033 84.5329 66.182Z" fill="#2B3D0A"/>
<path d="M79.2124 74.6322C78.2748 74.619 77.3558 74.3684 76.5413 73.9037C76.1521 73.686 75.7899 73.4234 75.462 73.1212C75.3975 73.06 75.3461 72.9864 75.3109 72.9047C75.2756 72.8231 75.2573 72.7352 75.257 72.6463C75.2529 72.4684 75.3188 72.296 75.4404 72.166C75.5016 72.1016 75.5753 72.0502 75.6569 72.0149C75.7385 71.9797 75.8264 71.9613 75.9153 71.961C76.0932 71.9569 76.2657 72.0228 76.3956 72.1445C76.7277 72.4468 77.1045 72.6962 77.5126 72.8838C78.2295 73.2452 79.0436 73.3664 79.8347 73.2294C80.6257 73.0924 81.3517 72.7044 81.9052 72.1229C82.1978 71.8222 82.4451 71.4804 82.6391 71.1084C82.6975 70.9876 82.7909 70.8871 82.9071 70.82C83.0233 70.753 83.157 70.7224 83.2908 70.7323C83.4247 70.7422 83.5524 70.7921 83.6575 70.8755C83.7627 70.9589 83.8402 71.072 83.8802 71.2001C83.9087 71.2837 83.92 71.3722 83.9135 71.4603C83.907 71.5483 83.8828 71.6342 83.8425 71.7128C83.5836 72.2148 83.2507 72.675 82.855 73.078C82.2041 73.7511 81.3809 74.2327 80.4752 74.4703C80.2678 74.5262 80.0569 74.5676 79.8438 74.5944C79.6344 74.621 79.4235 74.6336 79.2124 74.6322Z" fill="#80411D"/>
<path d="M82.1154 54.466C81.3049 54.1496 80.4666 53.9093 79.6115 53.7483C78.7325 53.5832 77.8401 53.5001 76.9458 53.5C74.201 53.494 71.5133 54.2831 69.2075 55.7719C66.9614 57.2206 65.1637 59.2669 64.0162 61.6808C65.8024 62.4795 69.0834 63.6073 72.5424 63.0731C76.0014 62.5388 79.6331 60.321 82.1154 54.466Z" fill="#54963E"/>
<path d="M68.2524 243.98C67.8531 247.531 67.452 251.08 67.049 254.627C66.6461 258.174 66.2432 261.721 65.8403 265.268C65.7944 265.577 65.7781 265.89 65.7917 266.202C65.8059 266.513 65.8584 266.821 65.9482 267.119C66.0685 267.519 66.2506 267.898 66.4878 268.242C66.7223 268.579 67.0103 268.877 67.3405 269.121L73.2764 273.438L79.2123 277.755C79.3474 277.857 79.4482 277.997 79.5013 278.157C79.5544 278.317 79.5571 278.49 79.5091 278.651C79.4832 278.812 79.4043 278.959 79.285 279.07C79.1657 279.18 79.0128 279.247 78.8508 279.261H30.5107C30.1401 279.259 29.7742 279.178 29.4373 279.024C29.1005 278.869 28.8004 278.645 28.5572 278.365C28.0317 277.769 27.7436 277.001 27.7478 276.207L30.9856 259.932L34.2233 243.656C40.2834 243.656 45.766 243.743 51.2487 243.824C56.7313 243.905 62.1978 243.98 68.2524 243.98Z" fill="#F9822B"/>
<path d="M44.1796 243.977L42.5607 254.623L40.9688 265.265C40.9202 265.574 40.9039 265.886 40.9202 266.199C40.9292 266.51 40.9819 266.819 41.0767 267.116C41.197 267.516 41.3791 267.895 41.6163 268.238C41.8477 268.579 42.1361 268.876 42.4689 269.118L48.4049 273.435L54.3408 277.752C54.4749 277.854 54.5747 277.994 54.6268 278.154C54.6789 278.314 54.6808 278.487 54.6322 278.648C54.5991 278.807 54.5127 278.951 54.3872 279.055C54.2616 279.159 54.1045 279.217 53.9415 279.22H2.76295C2.39237 279.218 2.02645 279.137 1.6896 278.983C1.35275 278.828 1.0527 278.604 0.809489 278.324C0.283993 277.728 -0.0040978 276.96 4.40468e-05 276.165L3.51843 260.058L7.07999 243.977H44.2011H44.1796Z" fill="#F9822B"/>
</svg>
