<?xml version="1.0" encoding="utf-8"?>
<!-- Generator: Adobe Illustrator 27.2.0, SVG Export Plug-In . SVG Version: 6.00 Build 0)  -->
<svg version="1.1" id="Layer_1" xmlns="http://www.w3.org/2000/svg" xmlns:xlink="http://www.w3.org/1999/xlink" x="0px" y="0px"
	 viewBox="0 0 1920 1200" style="enable-background:new 0 0 1920 1200;" xml:space="preserve">
<style type="text/css">
	.st0{fill: var(--Green-100, #519546);}
</style>
<path class="st0" d="M1038.6,770.8c18.1-5.4,36.2-9.8,53.5-16.2c10-3.7,20.5-7.8,28.2-16.3c3-3.3,3.8-5.9,0.7-9.9
	c-15.5-19.7-29-40.7-37.5-64.4c-6.3-17.7-8-36.2-6.3-54.7c1-11.3,3.1-23.1,7.6-33.3c7.3-16.6,16.4-32.7,26.1-48.1
	c9.9-15.8,21.5-30.5,32.3-45.7c9.2-12.9,18.9-25.5,27.6-38.8c13-19.8,26-39.9,32.2-63.1c2.9-11,4.9-22.7,4.7-34
	c-0.5-21-8.2-40-19.3-57.9c-8.3-13.4-18.2-25.3-28.5-37c-3.4-3.8-7-7.5-10.9-10.8c-3.8-3.2-8-4.9-13.5-4.8
	c-19.2,0.4-38.2,1.7-56.9,6.2c-10.9,2.7-22,5.4-32.4,9.5c-16.2,6.5-32.5,13.1-46.7,23.5c-12.8,9.3-26.2,17.9-38,28.4
	c-10.8,9.7-20,21.3-29.5,32.4c-10,11.7-17.4,25.1-24.9,38.5c-1.8,3.2-3,6.9-4.6,10.2c-6.4,13.1-9.7,27.2-13.8,41.1
	c-8.3,28-8.4,56.6-7.5,85.1c0.5,16.3,3.5,32.7,6,48.9c1,6.5,3.7,12.8,5.4,19.2c0.4,1.4,0.2,2.9,0.3,5.2c-17.5,2.6-34.7,5.1-51.9,7.8
	c-9.2,1.5-18.2,3.6-27.3,5.1c-10.5,1.8-21.1,3.3-31.6,4.8c-9.4,1.4-18.8,2.5-28.2,4.1c-7.9,1.3-15.8,3-23.7,4.6
	c-4.3,0.9-4.2-2-4.2-4.7c0-15.8,0.1-31.7,0-47.5c-0.3-31.1-0.7-62.2-0.9-93.3c0-7.8,0.7-15.5,0.9-23.3c0.1-2.3-0.5-4.5-0.9-6.8
	c-1.7-10.5-4.1-12-15.8-9.3c-17.7,4-35.1,8.4-53.3,8.4c-13.1,0-26.2,1.3-39.3,0.8c-16.3-0.6-32.6-1.8-48.8-4
	c-12.4-1.7-24.6-5.3-36.9-7.7c-4.6-0.9-6-3.2-6-7.8c0.2-29.8,0.2-59.7,0-89.5c-0.2-28.3-0.7-56.6-0.9-84.8c-0.1-6.6,0.2-6.9,6.5-6
	c10.9,1.6,21.6,3.9,32.5,5.4c12.8,1.8,25.7,3.4,38.6,4.4c10.9,0.9,21.9,1.3,32.8,1c15.5-0.5,31.1-1.2,46.4-3.1
	c13.4-1.7,26.5-5.2,39.8-7.7c3.4-0.6,4.4-2.3,4.4-5.4c0-28,0.1-56-0.1-84c-0.1-20.1-0.6-40.2-1-60.3c-0.1-5.1-0.5-10.2-1-15.3
	c-0.4-4.2,1.1-6.3,5.5-7.1c11.6-2.1,23.1-4.6,34.7-6.9c16.5-3.3,32.9-6.7,49.4-9.7c20.7-3.9,41.5-7.5,62.3-11.3
	c15.2-2.8,30.4-5.9,45.7-8.7c5.9-1.1,11.9-1.7,18.6-2.6c0,19.6,0,38.2,0,56.9c0,1.5-0.1,3-0.1,4.5c0,26.2,0,52.3,0,78.5
	c0,11.7,4.5,15.6,15.9,13.4c14.6-2.8,29.2-5.9,43.8-8.7c3.5-0.7,7.2-1.1,10.8-1.2c14.3-0.4,28.6-1.4,42.8-0.8
	c13.6,0.6,27.1,2.7,40.5,4.8c14.2,2.2,28.3,5.1,42.4,7.9c2.6,0.5,5.2,1.4,7.7,2.5c1.1,0.5,2.4,1.7,2.5,2.7
	c0.6,5.2,0.9,10.4,1.1,15.6c0.2,9.1,0.2,18.1,0.5,27.2c0,1,1.5,2.7,2.5,2.9c9.1,1.9,18.2,3.9,27.5,5.1c22.2,2.9,43.6,9.1,64.2,17.5
	c12.2,5,24,11.5,35.1,18.7c12.5,8.1,24.1,17.6,35.8,26.8c6.2,4.9,12.5,9.9,17.7,15.8c9.1,10.4,18,21,25.8,32.3
	c13.4,19.5,23.5,40.7,30.8,63.5c4.3,13.3,7.4,26.8,9.1,40.4c1.9,15.9,1.9,32.1,2.2,48.1c0.3,20-2.8,39.7-7.5,59.1
	c-4.6,18.9-11.7,37-21.5,53.7c-7,11.9-15.9,22.8-24.1,34c-10.3,14-23.7,24.9-37.1,35.6c-8.4,6.6-17.5,12.6-26.9,17.6
	c-14.6,7.9-29.7,15.1-44.9,21.9c-8.4,3.8-17.4,6.4-26.2,9.3c-12.8,4.3-24.4,10.7-36,17.6c-13.8,8.2-28,15.9-42.2,23.4
	c-18.4,9.8-38.1,16.5-58.1,22.2c-14.9,4.2-29.5,9.2-44.4,13.1c-11.4,3-23,5.1-34.5,7.4c-5.8,1.2-8.4-3.6-11.8-6.9
	c-5.3-5.2-10.6-10.5-15.7-15.8c-2.7-2.8-5.1-5.7-7.7-8.6c0.2-0.5,0.4-1.1,0.7-1.6c4.2-0.7,8.5-1.7,12.7-1.9
	c11.8-0.6,23.6-0.2,35.3-1.3c8.7-0.8,17.3-3.4,25.9-5.2C1035.3,771.4,1036.8,771.2,1038.6,770.8 M1328.5,567
	c3.1-9.7,7.1-19.2,9.2-29c2.9-13.6,5.6-27.5,6-41.4c0.5-20.3,0.2-40.9-2.1-61.1c-1.9-16.7-6.1-33.3-11.4-49.3
	c-4.1-12.4-10.8-24-17.4-35.4c-5.6-9.6-12-18.8-19.2-27.2c-7.3-8.7-15.6-16.7-24.1-24.4c-8-7.2-16.5-13.8-25.2-20.2
	c-3.7-2.7-8.1-5-13.9-3.8c5.8,7.8,11.2,14.8,16.3,22c10.1,14,20.8,27.5,29.8,42.2c7.5,12.2,13.6,25.4,18.7,38.8
	c4.3,11.3,6.7,23.4,9,35.3c2.5,13,4.6,26.1,5.6,39.2c0.8,10.2-0.4,20.5-0.8,30.8c-0.5,13.4-1.5,26.7-5.9,39.5
	c-4,11.7-7.3,23.7-10.9,35.5c-4.8,15.8-12.4,30.4-21.2,44.3c-6.3,10-12.4,20.2-19.4,29.6c-7.4,10.1-15.3,19.8-23.8,29
	c-9.8,10.5-20,20.8-31.1,29.9c-10.9,9-23,16.5-34.7,24.5c-6.6,4.5-13.4,8.5-20,12.7c1.5,4.4,3.2,6,8,6.2c20.2,1,39-1.9,54.7-16.8
	c11.3-10.7,24.2-19.6,35.6-30.1c13.3-12.3,26.1-25.1,38.3-38.4c7.9-8.7,14.6-18.5,21.4-28.2c4.8-6.9,9.1-14.3,13-21.8
	C1318.3,589.1,1323.1,578.3,1328.5,567z"/>
</svg>
