<svg width="1440" height="1024" viewBox="0 0 1440 1024" fill="none" xmlns="http://www.w3.org/2000/svg">
<g clip-path="url(#clip0_4071_40953)">
<rect width="1440" height="1024" fill="#FAFAFA"/>
<path d="M1178.28 1105.03C1178.27 1210.99 1141.51 1313.67 1074.26 1395.57C1007.02 1477.46 913.446 1533.52 809.493 1554.18C705.54 1574.84 597.638 1558.82 504.172 1508.86C410.707 1458.9 337.46 1378.09 296.914 1280.19C256.368 1182.29 251.031 1073.37 281.811 971.976C312.592 870.585 377.586 783.001 465.72 724.147C553.853 665.293 659.673 638.811 765.148 649.213C870.623 659.615 969.227 706.257 1044.16 781.192C1086.75 823.68 1120.52 874.161 1143.54 929.735C1166.56 985.31 1178.36 1044.88 1178.28 1105.03Z" fill="#1C2A10"/>
<path d="M400.291 1186.35C399.842 1181.69 398.654 1177.13 396.772 1172.84C395.013 1168.48 392.831 1164.22 390.984 1159.9C386.946 1150.64 384.524 1140.76 383.824 1130.68C383.084 1120.75 384.781 1110.79 388.767 1101.66C393.534 1091.83 401.106 1083.62 410.529 1078.08C419.906 1072.61 430.391 1070.71 438.959 1075.86C448.424 1081.56 459.648 1082.53 470.414 1080.1C481.358 1077.56 491.346 1071.94 499.196 1063.9C506.741 1055.89 512.683 1046.52 516.7 1036.27C520.796 1025.93 523.923 1015.22 526.042 1004.3C527 998.892 528.583 993.616 530.757 988.575C533.061 983.738 536.351 979.781 541.312 977.917C543.676 977.109 546.17 976.751 548.666 976.861C551.196 976.966 553.716 977.231 556.213 977.653L569.601 979.64L582.971 981.645C587.311 982.314 591.751 981.81 595.831 980.187C599.911 978.563 603.482 975.879 606.176 972.412C608.914 968.994 610.68 964.903 611.29 960.567C611.9 956.231 611.33 951.811 609.641 947.771C605.734 938.677 600.825 930.047 595.004 922.04C589.16 913.942 582.864 906.179 576.145 898.79C565.08 886.478 553.275 873.798 543.986 860.097C534.697 846.396 527.678 831.622 526.2 815.125C525.338 805.346 526.446 795.233 526.728 785.349C527.009 775.465 526.482 765.774 522.295 756.892C519.546 751.45 515.953 746.475 511.651 742.154C507.446 737.687 502.855 733.483 498.721 728.963C496.237 726.281 493.994 723.385 492.018 720.31C490.033 717.272 488.449 713.992 487.303 710.549C393.137 766.144 321.955 853.564 286.607 957.026C251.258 1060.49 254.073 1173.17 294.542 1274.74C307.857 1269.11 320.844 1262.74 333.439 1255.64C346.055 1248.55 358.255 1240.75 369.979 1232.27C378.083 1226.68 385.331 1219.95 391.494 1212.27C397.317 1204.55 400.994 1195.92 400.291 1186.35Z" fill="#9DC569"/>
<path d="M762.683 860.249C767.767 861.428 772.904 862.448 778.058 863.292C783.213 864.136 788.403 864.84 793.61 865.368C791.921 881.501 790.238 897.629 788.561 913.751C786.884 929.873 785.207 946.007 783.53 962.152C783.371 963.52 783.371 964.901 783.53 966.268C783.684 967.628 784.028 968.96 784.55 970.225C787.312 976.803 793.241 978.175 799.873 978.702C806.506 979.23 813.842 978.931 819.401 982.132C823.06 999.72 827.599 1017.11 832.067 1034.54C836.536 1051.97 840.969 1069.4 844.382 1087.01C844.823 1089.29 845.65 1091.48 846.828 1093.48C848.008 1095.47 849.583 1097.2 851.454 1098.56C857.278 1102.78 863.136 1101.83 868.431 1098.56C873.726 1095.29 878.406 1089.52 881.889 1084.23C888.504 1074.13 895.125 1064.03 901.751 1053.92L921.631 1023.64C923.39 1021.02 925.149 1018.36 927.032 1015.94C928.925 1013.47 931.151 1011.27 933.647 1009.41C939.206 1005.35 945.961 1003.75 952.805 1002.22C959.648 1000.69 966.474 999.174 972.157 995.34C977.654 991.465 981.854 986.022 984.207 979.722C986.693 973.276 988.24 966.506 988.799 959.62C989.468 952.866 989.731 945.954 990.558 939.183C991.177 932.425 992.913 925.816 995.695 919.625C997.897 915.249 1000.64 911.166 1003.86 907.472C1007.01 903.709 1010.47 900.156 1013.83 896.568C1031.05 878.113 1045.91 857.603 1058.1 835.504C1060.33 831.458 1062.49 827.325 1064.68 823.192C1066.86 819.059 1069.04 814.926 1071.31 810.881C1036.22 769.073 993.984 733.836 946.559 706.815C898.102 679.199 844.983 660.719 789.845 652.293C776.499 671.698 764.043 691.689 752.479 712.267C740.915 732.844 730.359 753.897 720.812 775.424L720.672 775.741L720.531 776.04C716.894 784.272 715.122 793.206 715.341 802.202C715.561 811.199 717.767 820.036 721.801 828.08C725.836 836.125 731.599 843.179 738.679 848.737C745.758 854.295 753.979 858.221 762.753 860.232L762.683 860.249Z" fill="#9DC569"/>
<path d="M888.21 795.336L878.27 827.205L868.33 859.056H888.21H908.072L898.132 827.205L888.21 795.336Z" fill="#519546"/>
<path d="M923.776 841.537L913.836 873.388L903.914 905.257H923.776H943.638L933.716 873.388L923.776 841.537Z" fill="#519546"/>
<path d="M959.707 796.268L949.784 828.136L939.845 859.988H959.707H979.586L969.646 828.136L959.707 796.268Z" fill="#519546"/>
<path d="M424.842 814.754L416.591 841.188L408.34 867.64H424.842H441.326L433.093 841.188L424.842 814.754Z" fill="#519546"/>
<path d="M456.741 778.328L448.49 804.78L440.257 831.232H456.741H473.225L464.992 804.78L456.741 778.328Z" fill="#519546"/>
</g>
<defs>
<clipPath id="clip0_4071_40953">
<rect width="1440" height="1024" fill="white"/>
</clipPath>
</defs>
</svg>
