<svg width="668" height="516" viewBox="0 0 668 516" fill="none" xmlns="http://www.w3.org/2000/svg">
<g clip-path="url(#clip0_3605_27904)">
<rect width="668" height="516" rx="16" fill="#FFD66C"/>
<rect width="668" height="516" rx="16" fill="#FFFFFD" fill-opacity="0.6"/>
<path d="M300.696 115.641C299.099 117.968 298.246 120.724 298.249 123.546C298.252 126.368 299.112 129.123 300.714 131.446C302.316 133.769 304.586 135.552 307.222 136.558C309.859 137.564 312.74 137.747 315.483 137.081H315.5C316.012 139.861 317.356 142.42 319.355 144.418C321.355 146.417 323.914 147.76 326.695 148.271C329.475 148.781 332.345 148.435 334.924 147.277C337.503 146.119 339.669 144.204 341.135 141.787C343.461 143.386 346.218 144.24 349.041 144.238C351.864 144.236 354.62 143.377 356.944 141.775C359.268 140.173 361.051 137.904 362.057 135.267C363.063 132.63 363.245 129.75 362.579 127.007V126.99V126.972C365.359 126.461 367.919 125.116 369.917 123.117C371.916 121.118 373.26 118.559 373.77 115.779C374.281 112.999 373.934 110.13 372.776 107.551C371.618 104.973 369.703 102.807 367.286 101.342V101.324C368.871 98.9993 369.716 96.2492 369.709 93.4353C369.702 90.6215 368.844 87.8756 367.247 85.5588C365.649 83.2419 363.388 81.4627 360.761 80.4548C358.133 79.447 355.262 79.2579 352.524 79.9123H352.489C351.976 77.1336 350.631 74.5763 348.631 72.5793C346.632 70.5822 344.073 69.2396 341.293 68.7293C338.513 68.219 335.644 68.5651 333.066 69.7218C330.487 70.8785 328.321 72.7911 326.854 75.2064C324.528 73.6088 321.771 72.755 318.948 72.7578C316.125 72.7606 313.37 73.6199 311.046 75.2221C308.723 76.8243 306.94 79.0939 305.935 81.7307C304.929 84.3676 304.747 87.2476 305.414 89.9899V90.0255C302.635 90.5384 300.077 91.8835 298.079 93.8824C296.082 95.8814 294.739 98.44 294.229 101.219C293.718 103.998 294.065 106.867 295.222 109.445C296.378 112.023 298.291 114.189 300.707 115.655L300.696 115.641Z" fill="#F9822B"/>
<path d="M318.619 108.861C318.537 112.387 319.681 115.832 321.854 118.61C324.028 121.388 327.098 123.326 330.541 124.095C333.984 124.864 337.586 124.415 340.736 122.826C343.885 121.236 346.385 118.605 347.812 115.379C349.238 112.153 349.501 108.532 348.557 105.134C347.613 101.736 345.519 98.7698 342.633 96.7417C339.747 94.7135 336.247 93.7485 332.729 94.0111C329.211 94.2736 325.893 95.7475 323.34 98.1816C321.888 99.5628 320.724 101.217 319.914 103.05C319.103 104.883 318.664 106.857 318.619 108.861Z" fill="#FFD66C"/>
<path d="M171.538 180.68C170.614 180.68 169.762 180.518 168.982 180.194C168.214 179.858 167.542 179.39 166.966 178.79C166.39 178.19 165.946 177.482 165.634 176.666C165.322 175.85 165.166 174.956 165.166 173.984C165.166 173.012 165.322 172.124 165.634 171.32C165.946 170.516 166.384 169.82 166.948 169.232C167.524 168.632 168.196 168.17 168.964 167.846C169.744 167.522 170.602 167.36 171.538 167.36C172.57 167.36 173.5 167.564 174.328 167.972C175.156 168.38 175.834 168.956 176.362 169.7C176.902 170.432 177.232 171.296 177.352 172.292H175.048C174.904 171.32 174.514 170.576 173.878 170.06C173.242 169.532 172.468 169.268 171.556 169.268C170.752 169.268 170.05 169.46 169.45 169.844C168.85 170.228 168.382 170.774 168.046 171.482C167.71 172.178 167.542 173.006 167.542 173.966C167.542 174.95 167.71 175.802 168.046 176.522C168.382 177.23 168.856 177.782 169.468 178.178C170.08 178.574 170.782 178.772 171.574 178.772C172.462 178.772 173.224 178.514 173.86 177.998C174.496 177.47 174.898 176.726 175.066 175.766H177.388C177.244 176.75 176.902 177.614 176.362 178.358C175.834 179.102 175.156 179.678 174.328 180.086C173.5 180.482 172.57 180.68 171.538 180.68ZM183.24 180.68C182.268 180.68 181.416 180.476 180.684 180.068C179.964 179.66 179.4 179.096 178.992 178.376C178.596 177.656 178.398 176.828 178.398 175.892C178.398 174.956 178.596 174.134 178.992 173.426C179.4 172.706 179.964 172.148 180.684 171.752C181.404 171.344 182.244 171.14 183.204 171.14C184.116 171.14 184.908 171.332 185.58 171.716C186.252 172.088 186.774 172.616 187.146 173.3C187.518 173.984 187.704 174.782 187.704 175.694C187.704 175.862 187.698 176.018 187.686 176.162C187.674 176.306 187.656 176.45 187.632 176.594H179.802V175.01H185.886L185.418 175.442C185.418 174.578 185.22 173.93 184.824 173.498C184.428 173.066 183.876 172.85 183.168 172.85C182.4 172.85 181.788 173.114 181.332 173.642C180.888 174.17 180.666 174.932 180.666 175.928C180.666 176.912 180.888 177.668 181.332 178.196C181.788 178.712 182.43 178.97 183.258 178.97C183.738 178.97 184.158 178.88 184.518 178.7C184.878 178.52 185.142 178.244 185.31 177.872H187.452C187.152 178.736 186.642 179.42 185.922 179.924C185.214 180.428 184.32 180.68 183.24 180.68ZM189.401 180.5V171.32H191.615V173.534H191.669V180.5H189.401ZM191.669 175.712L191.435 173.534C191.651 172.754 192.017 172.16 192.533 171.752C193.049 171.344 193.667 171.14 194.387 171.14C194.639 171.14 194.819 171.164 194.927 171.212V173.354C194.867 173.33 194.783 173.318 194.675 173.318C194.567 173.306 194.435 173.3 194.279 173.3C193.403 173.3 192.749 173.492 192.317 173.876C191.885 174.26 191.669 174.872 191.669 175.712ZM200.766 180.68C199.638 180.68 198.804 180.416 198.264 179.888C197.736 179.348 197.472 178.544 197.472 177.476V169.232L199.758 168.386V177.53C199.758 177.974 199.878 178.304 200.118 178.52C200.358 178.736 200.736 178.844 201.252 178.844C201.456 178.844 201.636 178.832 201.792 178.808C201.96 178.772 202.116 178.73 202.26 178.682V180.446C202.116 180.518 201.912 180.572 201.648 180.608C201.384 180.656 201.09 180.68 200.766 180.68ZM195.708 173.102V171.32H202.26V173.102H195.708ZM203.903 180.5V171.32H206.171V180.5H203.903ZM203.795 169.808V167.306H206.261V169.808H203.795ZM209.211 180.5V170.474C209.211 169.466 209.487 168.698 210.039 168.17C210.603 167.63 211.443 167.36 212.559 167.36C212.811 167.36 213.021 167.372 213.189 167.396C213.357 167.42 213.519 167.456 213.675 167.504V169.394C213.591 169.358 213.483 169.334 213.351 169.322C213.219 169.298 213.069 169.286 212.901 169.286C212.421 169.286 212.061 169.406 211.821 169.646C211.593 169.874 211.479 170.21 211.479 170.654V180.5H209.211ZM215.097 180.5V171.32H217.383V180.5H215.097ZM207.555 173.21V171.32H215.799V173.21H207.555ZM215.061 169.934V167.54H217.419V169.934H215.061ZM223.438 180.68C222.514 180.68 221.698 180.476 220.99 180.068C220.294 179.66 219.742 179.096 219.334 178.376C218.938 177.644 218.74 176.816 218.74 175.892C218.74 174.968 218.938 174.152 219.334 173.444C219.742 172.724 220.294 172.16 220.99 171.752C221.698 171.344 222.514 171.14 223.438 171.14C224.194 171.14 224.878 171.284 225.49 171.572C226.102 171.848 226.606 172.244 227.002 172.76C227.398 173.264 227.65 173.852 227.758 174.524H225.58C225.448 174.032 225.196 173.648 224.824 173.372C224.452 173.096 224.002 172.958 223.474 172.958C222.982 172.958 222.556 173.078 222.196 173.318C221.848 173.558 221.578 173.9 221.386 174.344C221.194 174.788 221.098 175.304 221.098 175.892C221.098 176.492 221.194 177.014 221.386 177.458C221.578 177.902 221.854 178.25 222.214 178.502C222.574 178.742 222.994 178.862 223.474 178.862C224.002 178.862 224.452 178.724 224.824 178.448C225.196 178.172 225.448 177.788 225.58 177.296H227.758C227.65 177.968 227.392 178.562 226.984 179.078C226.588 179.582 226.084 179.978 225.472 180.266C224.872 180.542 224.194 180.68 223.438 180.68ZM234.993 180.5C234.933 180.26 234.885 179.996 234.849 179.708C234.825 179.42 234.813 179.072 234.813 178.664H234.741V174.308C234.741 173.828 234.603 173.468 234.327 173.228C234.063 172.976 233.655 172.85 233.103 172.85C232.563 172.85 232.131 172.952 231.807 173.156C231.495 173.348 231.303 173.63 231.231 174.002H229.053C229.149 173.15 229.557 172.46 230.277 171.932C230.997 171.404 231.963 171.14 233.175 171.14C234.435 171.14 235.389 171.428 236.037 172.004C236.685 172.568 237.009 173.402 237.009 174.506V178.664C237.009 178.952 237.027 179.246 237.062 179.546C237.111 179.846 237.177 180.164 237.261 180.5H234.993ZM231.807 180.68C230.883 180.68 230.145 180.452 229.593 179.996C229.053 179.528 228.783 178.904 228.783 178.124C228.783 177.284 229.089 176.618 229.701 176.126C230.313 175.634 231.177 175.304 232.293 175.136L235.155 174.704V176.144L232.671 176.522C232.131 176.606 231.723 176.756 231.447 176.972C231.183 177.188 231.051 177.488 231.051 177.872C231.051 178.22 231.177 178.49 231.429 178.682C231.681 178.862 232.029 178.952 232.473 178.952C233.121 178.952 233.661 178.79 234.093 178.466C234.525 178.142 234.741 177.746 234.741 177.278L234.993 178.664C234.753 179.324 234.357 179.828 233.805 180.176C233.265 180.512 232.599 180.68 231.807 180.68ZM242.935 180.68C241.807 180.68 240.973 180.416 240.433 179.888C239.905 179.348 239.641 178.544 239.641 177.476V169.232L241.927 168.386V177.53C241.927 177.974 242.047 178.304 242.287 178.52C242.527 178.736 242.905 178.844 243.421 178.844C243.625 178.844 243.805 178.832 243.961 178.808C244.129 178.772 244.285 178.73 244.429 178.682V180.446C244.285 180.518 244.081 180.572 243.817 180.608C243.553 180.656 243.259 180.68 242.935 180.68ZM237.877 173.102V171.32H244.429V173.102H237.877ZM249.967 180.68C248.995 180.68 248.143 180.476 247.411 180.068C246.691 179.66 246.127 179.096 245.719 178.376C245.323 177.656 245.125 176.828 245.125 175.892C245.125 174.956 245.323 174.134 245.719 173.426C246.127 172.706 246.691 172.148 247.411 171.752C248.131 171.344 248.971 171.14 249.931 171.14C250.843 171.14 251.635 171.332 252.307 171.716C252.979 172.088 253.501 172.616 253.873 173.3C254.245 173.984 254.431 174.782 254.431 175.694C254.431 175.862 254.425 176.018 254.413 176.162C254.401 176.306 254.383 176.45 254.359 176.594H246.529V175.01H252.613L252.145 175.442C252.145 174.578 251.947 173.93 251.551 173.498C251.155 173.066 250.603 172.85 249.895 172.85C249.127 172.85 248.515 173.114 248.059 173.642C247.615 174.17 247.393 174.932 247.393 175.928C247.393 176.912 247.615 177.668 248.059 178.196C248.515 178.712 249.157 178.97 249.985 178.97C250.465 178.97 250.885 178.88 251.245 178.7C251.605 178.52 251.869 178.244 252.037 177.872H254.179C253.879 178.736 253.369 179.42 252.649 179.924C251.941 180.428 251.047 180.68 249.967 180.68ZM263.784 180.68C262.812 180.68 261.954 180.476 261.21 180.068C260.478 179.66 259.908 179.096 259.5 178.376C259.092 177.644 258.888 176.81 258.888 175.874C258.888 174.938 259.092 174.116 259.5 173.408C259.908 172.7 260.478 172.148 261.21 171.752C261.954 171.344 262.812 171.14 263.784 171.14C264.768 171.14 265.626 171.344 266.358 171.752C267.09 172.148 267.66 172.7 268.068 173.408C268.476 174.116 268.68 174.938 268.68 175.874C268.68 176.81 268.47 177.644 268.05 178.376C267.642 179.096 267.072 179.66 266.34 180.068C265.608 180.476 264.756 180.68 263.784 180.68ZM263.784 178.862C264.264 178.862 264.696 178.742 265.08 178.502C265.464 178.25 265.764 177.902 265.98 177.458C266.196 177.002 266.304 176.468 266.304 175.856C266.304 174.956 266.064 174.248 265.584 173.732C265.116 173.216 264.516 172.958 263.784 172.958C263.052 172.958 262.446 173.216 261.966 173.732C261.486 174.248 261.246 174.956 261.246 175.856C261.246 176.468 261.354 177.002 261.57 177.458C261.798 177.902 262.098 178.25 262.47 178.502C262.854 178.742 263.292 178.862 263.784 178.862ZM270.928 180.5V170.474C270.928 169.466 271.204 168.698 271.756 168.17C272.32 167.63 273.16 167.36 274.276 167.36C274.528 167.36 274.738 167.372 274.906 167.396C275.074 167.42 275.236 167.456 275.392 167.504V169.268C275.308 169.232 275.2 169.208 275.068 169.196C274.936 169.172 274.786 169.16 274.618 169.16C274.138 169.16 273.778 169.28 273.538 169.52C273.31 169.748 273.196 170.084 273.196 170.528V180.5H270.928ZM269.272 173.102V171.32H275.194V173.102H269.272ZM286.291 180.68C285.355 180.68 284.491 180.518 283.699 180.194C282.907 179.87 282.217 179.408 281.629 178.808C281.053 178.208 280.603 177.5 280.279 176.684C279.967 175.856 279.811 174.95 279.811 173.966C279.811 172.658 280.087 171.512 280.639 170.528C281.191 169.532 281.953 168.758 282.925 168.206C283.909 167.642 285.025 167.36 286.273 167.36C287.545 167.36 288.667 167.642 289.639 168.206C290.623 168.758 291.391 169.532 291.943 170.528C292.495 171.524 292.771 172.676 292.771 173.984C292.771 174.968 292.609 175.868 292.285 176.684C291.973 177.5 291.523 178.208 290.935 178.808C290.359 179.408 289.675 179.87 288.883 180.194C288.091 180.518 287.227 180.68 286.291 180.68ZM286.273 178.772C287.089 178.772 287.803 178.568 288.415 178.16C289.039 177.752 289.525 177.188 289.873 176.468C290.221 175.736 290.395 174.896 290.395 173.948C290.395 173.012 290.221 172.196 289.873 171.5C289.537 170.792 289.057 170.246 288.433 169.862C287.821 169.466 287.101 169.268 286.273 169.268C285.457 169.268 284.737 169.466 284.113 169.862C283.501 170.246 283.027 170.786 282.691 171.482C282.355 172.178 282.187 173 282.187 173.948C282.187 174.908 282.355 175.748 282.691 176.468C283.039 177.188 283.519 177.752 284.131 178.16C284.755 178.568 285.469 178.772 286.273 178.772ZM297.524 180.68C296.888 180.68 296.336 180.548 295.868 180.284C295.412 180.008 295.058 179.636 294.806 179.168C294.566 178.7 294.446 178.172 294.446 177.584V171.32H296.714V177.116C296.714 177.68 296.852 178.106 297.128 178.394C297.416 178.682 297.818 178.826 298.334 178.826C298.802 178.826 299.21 178.718 299.558 178.502C299.918 178.286 300.2 177.986 300.404 177.602C300.62 177.206 300.728 176.762 300.728 176.27L300.962 178.466C300.662 179.138 300.212 179.678 299.612 180.086C299.024 180.482 298.328 180.68 297.524 180.68ZM300.8 180.5V178.34H300.728V171.32H303.014V180.5H300.8ZM309.398 180.68C308.27 180.68 307.436 180.416 306.896 179.888C306.368 179.348 306.104 178.544 306.104 177.476V169.232L308.39 168.386V177.53C308.39 177.974 308.51 178.304 308.75 178.52C308.99 178.736 309.368 178.844 309.884 178.844C310.088 178.844 310.268 178.832 310.424 178.808C310.592 178.772 310.748 178.73 310.892 178.682V180.446C310.748 180.518 310.544 180.572 310.28 180.608C310.016 180.656 309.722 180.68 309.398 180.68ZM304.34 173.102V171.32H310.892V173.102H304.34ZM316.011 180.68C314.739 180.68 313.725 180.416 312.969 179.888C312.213 179.348 311.799 178.604 311.727 177.656H313.797C313.857 178.124 314.079 178.478 314.463 178.718C314.847 178.958 315.363 179.078 316.011 179.078C316.599 179.078 317.037 178.988 317.325 178.808C317.625 178.616 317.775 178.346 317.775 177.998C317.775 177.746 317.691 177.542 317.523 177.386C317.355 177.218 317.037 177.08 316.569 176.972L315.093 176.63C314.085 176.414 313.335 176.078 312.843 175.622C312.363 175.154 312.123 174.572 312.123 173.876C312.123 173.024 312.447 172.358 313.095 171.878C313.755 171.386 314.661 171.14 315.813 171.14C316.953 171.14 317.865 171.386 318.549 171.878C319.245 172.358 319.629 173.024 319.701 173.876H317.631C317.571 173.504 317.379 173.222 317.055 173.03C316.743 172.838 316.311 172.742 315.759 172.742C315.243 172.742 314.853 172.826 314.589 172.994C314.325 173.15 314.193 173.384 314.193 173.696C314.193 173.936 314.295 174.14 314.499 174.308C314.703 174.464 315.045 174.602 315.525 174.722L317.109 175.082C318.009 175.286 318.687 175.64 319.143 176.144C319.611 176.648 319.845 177.242 319.845 177.926C319.845 178.802 319.509 179.48 318.837 179.96C318.165 180.44 317.223 180.68 316.011 180.68ZM325.5 180.68C324.372 180.68 323.538 180.416 322.998 179.888C322.47 179.348 322.206 178.544 322.206 177.476V169.232L324.492 168.386V177.53C324.492 177.974 324.612 178.304 324.852 178.52C325.092 178.736 325.47 178.844 325.986 178.844C326.19 178.844 326.37 178.832 326.526 178.808C326.694 178.772 326.85 178.73 326.994 178.682V180.446C326.85 180.518 326.646 180.572 326.382 180.608C326.118 180.656 325.824 180.68 325.5 180.68ZM320.442 173.102V171.32H326.994V173.102H320.442ZM334.291 180.5C334.231 180.26 334.183 179.996 334.147 179.708C334.123 179.42 334.111 179.072 334.111 178.664H334.039V174.308C334.039 173.828 333.901 173.468 333.625 173.228C333.361 172.976 332.953 172.85 332.401 172.85C331.861 172.85 331.429 172.952 331.105 173.156C330.793 173.348 330.601 173.63 330.529 174.002H328.351C328.447 173.15 328.855 172.46 329.575 171.932C330.295 171.404 331.261 171.14 332.473 171.14C333.733 171.14 334.687 171.428 335.335 172.004C335.983 172.568 336.307 173.402 336.307 174.506V178.664C336.307 178.952 336.325 179.246 336.361 179.546C336.409 179.846 336.475 180.164 336.559 180.5H334.291ZM331.105 180.68C330.181 180.68 329.443 180.452 328.891 179.996C328.351 179.528 328.081 178.904 328.081 178.124C328.081 177.284 328.387 176.618 328.999 176.126C329.611 175.634 330.475 175.304 331.591 175.136L334.453 174.704V176.144L331.969 176.522C331.429 176.606 331.021 176.756 330.745 176.972C330.481 177.188 330.349 177.488 330.349 177.872C330.349 178.22 330.475 178.49 330.727 178.682C330.979 178.862 331.327 178.952 331.771 178.952C332.419 178.952 332.959 178.79 333.391 178.466C333.823 178.142 334.039 177.746 334.039 177.278L334.291 178.664C334.051 179.324 333.655 179.828 333.103 180.176C332.563 180.512 331.897 180.68 331.105 180.68ZM338.604 180.5V171.32H340.818V173.48H340.872V180.5H338.604ZM345.048 180.5V174.704C345.048 174.14 344.904 173.714 344.616 173.426C344.328 173.138 343.908 172.994 343.356 172.994C342.876 172.994 342.444 173.102 342.06 173.318C341.688 173.534 341.394 173.834 341.178 174.218C340.974 174.602 340.872 175.046 340.872 175.55L340.638 173.354C340.95 172.682 341.406 172.148 342.006 171.752C342.606 171.344 343.326 171.14 344.166 171.14C345.162 171.14 345.936 171.422 346.488 171.986C347.052 172.55 347.334 173.3 347.334 174.236V180.5H345.048ZM356.178 180.5V178.43L356.358 178.466C356.202 179.138 355.824 179.678 355.224 180.086C354.624 180.482 353.91 180.68 353.082 180.68C352.242 180.68 351.51 180.488 350.886 180.104C350.274 179.708 349.8 179.156 349.464 178.448C349.128 177.74 348.96 176.906 348.96 175.946C348.96 174.974 349.134 174.128 349.482 173.408C349.83 172.688 350.316 172.13 350.94 171.734C351.576 171.338 352.314 171.14 353.154 171.14C354.018 171.14 354.732 171.35 355.296 171.77C355.86 172.178 356.208 172.748 356.34 173.48L356.106 173.498V167.54H358.392V180.5H356.178ZM353.748 178.826C354.48 178.826 355.062 178.574 355.494 178.07C355.938 177.554 356.16 176.834 356.16 175.91C356.16 174.986 355.938 174.272 355.494 173.768C355.05 173.264 354.462 173.012 353.73 173.012C353.01 173.012 352.428 173.27 351.984 173.786C351.54 174.29 351.318 175.004 351.318 175.928C351.318 176.852 351.54 177.566 351.984 178.07C352.428 178.574 353.016 178.826 353.748 178.826ZM360.806 180.5V171.32H363.074V180.5H360.806ZM360.698 169.808V167.306H363.164V169.808H360.698ZM365.481 180.5V171.32H367.695V173.48H367.749V180.5H365.481ZM371.925 180.5V174.704C371.925 174.14 371.781 173.714 371.493 173.426C371.205 173.138 370.785 172.994 370.233 172.994C369.753 172.994 369.321 173.102 368.937 173.318C368.565 173.534 368.271 173.834 368.055 174.218C367.851 174.602 367.749 175.046 367.749 175.55L367.515 173.354C367.827 172.682 368.283 172.148 368.883 171.752C369.483 171.344 370.203 171.14 371.043 171.14C372.039 171.14 372.813 171.422 373.365 171.986C373.929 172.55 374.211 173.3 374.211 174.236V180.5H371.925ZM380.517 184.37C379.305 184.37 378.309 184.106 377.529 183.578C376.761 183.05 376.305 182.336 376.161 181.436H378.321C378.429 181.748 378.663 181.988 379.023 182.156C379.395 182.336 379.875 182.426 380.463 182.426C381.315 182.426 381.945 182.234 382.353 181.85C382.761 181.478 382.965 180.908 382.965 180.14V178.16L383.127 178.196C382.983 178.868 382.617 179.408 382.029 179.816C381.441 180.212 380.721 180.41 379.869 180.41C379.053 180.41 378.339 180.218 377.727 179.834C377.127 179.45 376.659 178.916 376.323 178.232C375.987 177.536 375.819 176.726 375.819 175.802C375.819 174.866 375.993 174.05 376.341 173.354C376.689 172.658 377.175 172.118 377.799 171.734C378.435 171.338 379.173 171.14 380.013 171.14C380.877 171.14 381.585 171.35 382.137 171.77C382.701 172.178 383.049 172.748 383.181 173.48L383.037 173.498V171.32H385.251V180.122C385.251 181.43 384.825 182.462 383.973 183.218C383.133 183.986 381.981 184.37 380.517 184.37ZM380.607 178.61C381.339 178.61 381.921 178.364 382.353 177.872C382.797 177.368 383.019 176.666 383.019 175.766C383.019 174.866 382.797 174.17 382.353 173.678C381.909 173.186 381.321 172.94 380.589 172.94C379.869 172.94 379.287 173.192 378.843 173.696C378.399 174.188 378.177 174.884 378.177 175.784C378.177 176.684 378.399 177.38 378.843 177.872C379.287 178.364 379.875 178.61 380.607 178.61ZM390.443 180.5L395.213 167.54H397.229L392.747 180.5H390.443ZM400.217 180.5L395.753 167.54H397.877L402.629 180.5H400.217ZM392.909 175.406H400.001V177.278H392.909V175.406ZM407.78 180.68C406.856 180.68 406.04 180.476 405.332 180.068C404.636 179.66 404.084 179.096 403.676 178.376C403.28 177.644 403.082 176.816 403.082 175.892C403.082 174.968 403.28 174.152 403.676 173.444C404.084 172.724 404.636 172.16 405.332 171.752C406.04 171.344 406.856 171.14 407.78 171.14C408.536 171.14 409.22 171.284 409.832 171.572C410.444 171.848 410.948 172.244 411.344 172.76C411.74 173.264 411.992 173.852 412.1 174.524H409.922C409.79 174.032 409.538 173.648 409.166 173.372C408.794 173.096 408.344 172.958 407.816 172.958C407.324 172.958 406.898 173.078 406.538 173.318C406.19 173.558 405.92 173.9 405.728 174.344C405.536 174.788 405.44 175.304 405.44 175.892C405.44 176.492 405.536 177.014 405.728 177.458C405.92 177.902 406.196 178.25 406.556 178.502C406.916 178.742 407.336 178.862 407.816 178.862C408.344 178.862 408.794 178.724 409.166 178.448C409.538 178.172 409.79 177.788 409.922 177.296H412.1C411.992 177.968 411.734 178.562 411.326 179.078C410.93 179.582 410.426 179.978 409.814 180.266C409.214 180.542 408.536 180.68 407.78 180.68ZM413.733 180.5V167.54H416.001V180.5H413.733ZM420.177 180.5V174.704C420.177 174.14 420.033 173.714 419.745 173.426C419.457 173.138 419.037 172.994 418.485 172.994C418.005 172.994 417.573 173.102 417.189 173.318C416.817 173.534 416.523 173.834 416.307 174.218C416.103 174.602 416.001 175.046 416.001 175.55L415.767 173.354C416.079 172.682 416.535 172.148 417.135 171.752C417.735 171.344 418.455 171.14 419.295 171.14C420.291 171.14 421.065 171.422 421.617 171.986C422.181 172.55 422.463 173.3 422.463 174.236V180.5H420.177ZM424.685 180.5V171.32H426.953V180.5H424.685ZM424.577 169.808V167.306H427.043V169.808H424.577ZM433.447 180.68C432.475 180.68 431.623 180.476 430.891 180.068C430.171 179.66 429.607 179.096 429.199 178.376C428.803 177.656 428.605 176.828 428.605 175.892C428.605 174.956 428.803 174.134 429.199 173.426C429.607 172.706 430.171 172.148 430.891 171.752C431.611 171.344 432.451 171.14 433.411 171.14C434.323 171.14 435.115 171.332 435.787 171.716C436.459 172.088 436.981 172.616 437.353 173.3C437.725 173.984 437.911 174.782 437.911 175.694C437.911 175.862 437.905 176.018 437.893 176.162C437.881 176.306 437.863 176.45 437.839 176.594H430.009V175.01H436.093L435.625 175.442C435.625 174.578 435.427 173.93 435.031 173.498C434.635 173.066 434.083 172.85 433.375 172.85C432.607 172.85 431.995 173.114 431.539 173.642C431.095 174.17 430.873 174.932 430.873 175.928C430.873 176.912 431.095 177.668 431.539 178.196C431.995 178.712 432.637 178.97 433.465 178.97C433.945 178.97 434.365 178.88 434.725 178.7C435.085 178.52 435.349 178.244 435.517 177.872H437.659C437.359 178.736 436.849 179.42 436.129 179.924C435.421 180.428 434.527 180.68 433.447 180.68ZM441.918 180.5L438.246 171.32H440.694L443.628 179.762H442.422L445.356 171.32H447.732L444.042 180.5H441.918ZM452.871 180.68C451.899 180.68 451.047 180.476 450.315 180.068C449.595 179.66 449.031 179.096 448.623 178.376C448.227 177.656 448.029 176.828 448.029 175.892C448.029 174.956 448.227 174.134 448.623 173.426C449.031 172.706 449.595 172.148 450.315 171.752C451.035 171.344 451.875 171.14 452.835 171.14C453.747 171.14 454.539 171.332 455.211 171.716C455.883 172.088 456.405 172.616 456.777 173.3C457.149 173.984 457.335 174.782 457.335 175.694C457.335 175.862 457.329 176.018 457.317 176.162C457.305 176.306 457.287 176.45 457.263 176.594H449.433V175.01H455.517L455.049 175.442C455.049 174.578 454.851 173.93 454.455 173.498C454.059 173.066 453.507 172.85 452.799 172.85C452.031 172.85 451.419 173.114 450.963 173.642C450.519 174.17 450.297 174.932 450.297 175.928C450.297 176.912 450.519 177.668 450.963 178.196C451.419 178.712 452.061 178.97 452.889 178.97C453.369 178.97 453.789 178.88 454.149 178.7C454.509 178.52 454.773 178.244 454.941 177.872H457.083C456.783 178.736 456.273 179.42 455.553 179.924C454.845 180.428 453.951 180.68 452.871 180.68ZM459.032 180.5V171.32H461.246V173.48H461.3V180.5H459.032ZM465.206 180.5V174.578C465.206 174.038 465.068 173.642 464.792 173.39C464.528 173.126 464.15 172.994 463.658 172.994C463.226 172.994 462.83 173.096 462.47 173.3C462.11 173.504 461.822 173.792 461.606 174.164C461.402 174.536 461.3 174.968 461.3 175.46L461.066 173.354C461.378 172.682 461.828 172.148 462.416 171.752C463.004 171.344 463.688 171.14 464.468 171.14C465.404 171.14 466.142 171.41 466.682 171.95C467.222 172.478 467.492 173.162 467.492 174.002V180.5H465.206ZM471.38 180.5V174.578C471.38 174.038 471.248 173.642 470.984 173.39C470.72 173.126 470.342 172.994 469.85 172.994C469.406 172.994 469.004 173.096 468.644 173.3C468.284 173.504 468.002 173.792 467.798 174.164C467.594 174.536 467.492 174.968 467.492 175.46L467.096 173.354C467.396 172.682 467.852 172.148 468.464 171.752C469.076 171.344 469.784 171.14 470.588 171.14C471.548 171.14 472.298 171.416 472.838 171.968C473.39 172.508 473.666 173.228 473.666 174.128V180.5H471.38ZM480.099 180.68C479.127 180.68 478.275 180.476 477.543 180.068C476.823 179.66 476.259 179.096 475.851 178.376C475.455 177.656 475.257 176.828 475.257 175.892C475.257 174.956 475.455 174.134 475.851 173.426C476.259 172.706 476.823 172.148 477.543 171.752C478.263 171.344 479.103 171.14 480.063 171.14C480.975 171.14 481.767 171.332 482.439 171.716C483.111 172.088 483.633 172.616 484.005 173.3C484.377 173.984 484.563 174.782 484.563 175.694C484.563 175.862 484.557 176.018 484.545 176.162C484.533 176.306 484.515 176.45 484.491 176.594H476.661V175.01H482.745L482.277 175.442C482.277 174.578 482.079 173.93 481.683 173.498C481.287 173.066 480.735 172.85 480.027 172.85C479.259 172.85 478.647 173.114 478.191 173.642C477.747 174.17 477.525 174.932 477.525 175.928C477.525 176.912 477.747 177.668 478.191 178.196C478.647 178.712 479.289 178.97 480.117 178.97C480.597 178.97 481.017 178.88 481.377 178.7C481.737 178.52 482.001 178.244 482.169 177.872H484.311C484.011 178.736 483.501 179.42 482.781 179.924C482.073 180.428 481.179 180.68 480.099 180.68ZM486.261 180.5V171.32H488.475V173.48H488.529V180.5H486.261ZM492.705 180.5V174.704C492.705 174.14 492.561 173.714 492.273 173.426C491.985 173.138 491.565 172.994 491.013 172.994C490.533 172.994 490.101 173.102 489.717 173.318C489.345 173.534 489.051 173.834 488.835 174.218C488.631 174.602 488.529 175.046 488.529 175.55L488.295 173.354C488.607 172.682 489.063 172.148 489.663 171.752C490.263 171.344 490.983 171.14 491.823 171.14C492.819 171.14 493.593 171.422 494.145 171.986C494.709 172.55 494.991 173.3 494.991 174.236V180.5H492.705ZM501.07 180.68C499.942 180.68 499.108 180.416 498.568 179.888C498.04 179.348 497.776 178.544 497.776 177.476V169.232L500.062 168.386V177.53C500.062 177.974 500.182 178.304 500.422 178.52C500.662 178.736 501.04 178.844 501.556 178.844C501.76 178.844 501.94 178.832 502.096 178.808C502.264 178.772 502.42 178.73 502.564 178.682V180.446C502.42 180.518 502.216 180.572 501.952 180.608C501.688 180.656 501.394 180.68 501.07 180.68ZM496.012 173.102V171.32H502.564V173.102H496.012Z" fill="#1D1D1D"/>
<rect x="294" y="208.5" width="80" height="4" rx="2" fill="#F9822B"/>
<rect x="294" y="374.5" width="80" height="4" rx="2" fill="#F9822B"/>
<rect x="38" y="38" width="592" height="440" rx="10" stroke="#FFD66C" stroke-width="4"/>
<rect x="30" y="30" width="608" height="456" rx="14" stroke="#FFD66C" stroke-width="4"/>
<rect x="-85" width="120.678" height="120.678" transform="rotate(-45 -85 0)" fill="#F9822B"/>
<rect x="-85" y="516.332" width="120.678" height="120.678" transform="rotate(-45 -85 516.332)" fill="#F9822B"/>
<rect x="583" width="120.678" height="120.678" transform="rotate(-45 583 0)" fill="#F9822B"/>
<rect x="583" y="516.332" width="120.678" height="120.678" transform="rotate(-45 583 516.332)" fill="#F9822B"/>
</g>
<defs>
<clipPath id="clip0_3605_27904">
<rect width="668" height="516" rx="16" fill="white"/>
</clipPath>
</defs>
</svg>
