<svg width="418" height="281" viewBox="0 0 418 281" fill="none" xmlns="http://www.w3.org/2000/svg">
<g clip-path="url(#clip0_2405_28607)">
<rect y="0.5" width="418" height="280" rx="16" fill="#6DAAE0"/>
<rect y="0.5" width="418" height="280" rx="16" fill="#FFFFFD" fill-opacity="0.8"/>
<path d="M167.513 113.195L163.841 113.291L160.168 113.387C161.275 113.441 162.441 113.459 163.667 113.423C164.893 113.387 166.167 113.321 167.513 113.195Z" fill="#9DC569"/>
<path d="M253.478 131.54C257.068 136.69 259.928 142.313 261.975 148.247C264.05 154.204 265.085 160.474 265.035 166.781C264.967 170.974 264.346 175.14 263.188 179.17C262.04 183.208 260.311 187.056 258.054 190.595C255.682 194.373 252.426 197.516 248.566 199.752C244.913 201.875 240.778 203.262 236.14 204.46C233.036 205.223 230.116 206.599 227.551 208.506C225.12 210.33 223.143 212.692 221.774 215.406C220.553 217.932 219.954 220.712 220.026 223.516C220.085 226.321 220.514 229.105 221.302 231.797C221.551 232.677 223.098 236.981 224.589 241.058C226.081 245.135 227.544 248.984 227.635 248.949L221.086 251.539L214.513 254.101C214.513 254.101 213.489 251.816 212.205 248.566C210.715 244.863 209.427 241.082 208.346 237.24C207.43 233.944 206.788 230.578 206.427 227.177C205.974 222.707 206.169 218.194 207.003 213.779C207.538 210.918 208.461 208.143 209.748 205.532C211.016 202.919 212.731 200.549 214.816 198.528C217.253 196.33 220.09 194.621 223.173 193.493C226.235 192.305 229.433 191.37 232.466 190.327C235.604 189.264 238.543 187.687 241.162 185.659C243.788 183.635 245.95 181.073 247.502 178.144C252.303 168.922 250.552 159.177 246.242 150.013C241.932 140.849 235.129 132.27 229.79 125.31C227.171 121.901 224.271 118.173 221.115 114.224C217.959 110.274 214.523 106.02 210.837 101.589L216.593 96.5651L222.348 91.5411C225.968 95.7029 229.606 100.044 233.26 104.564C236.914 109.085 240.564 113.788 244.21 118.675C245.83 120.843 247.412 123.001 248.955 125.151C250.499 127.301 252.006 129.43 253.478 131.54Z" fill="#9DC569"/>
<path d="M244.106 145.758C242.788 143.76 241.478 141.78 240.177 139.818C238.877 137.856 237.565 135.877 236.244 133.881C236.115 133.672 236.011 133.504 235.894 133.394C235.776 133.284 235.724 133.119 235.649 132.997C235.466 132.702 235.172 132.328 234.769 131.79C234.366 131.251 233.85 130.551 233.149 129.634C230.228 125.814 227.622 122.46 225.765 120.091C223.909 117.722 222.778 116.312 222.778 116.312C221.171 114.302 219.365 112.05 217.379 109.586C215.393 107.121 213.204 104.431 210.86 101.569L216.615 96.5447L222.371 91.5207C225.068 94.5443 227.524 97.372 229.719 99.9465C231.914 102.521 233.855 104.844 235.524 106.865C235.871 107.29 239.195 111.34 243.309 116.771C247.807 122.607 251.989 128.679 255.837 134.962C256.689 136.341 257.496 137.853 258.323 139.487C259.149 141.121 259.958 142.886 260.737 144.83C261.236 146.082 261.665 147.244 262.017 148.292C262.369 149.34 262.668 150.267 262.896 151.047L253.526 148.397L244.106 145.758Z" fill="#519546"/>
<path d="M313.746 138.071C312.271 136.923 310.571 136.099 308.757 135.652C306.943 135.206 305.054 135.146 303.215 135.477C299.467 136.17 296.076 138.145 293.622 141.063C291.169 143.981 289.807 147.661 289.768 151.473C288.519 151.193 287.246 151.037 285.966 151.009C283.539 150.948 281.125 151.388 278.875 152.301C276.625 153.214 274.587 154.581 272.888 156.316C271.19 158.051 269.867 160.117 269.002 162.386C268.137 164.655 267.748 167.078 267.86 169.503C267.88 170.025 267.925 170.553 267.988 171.076C264.371 171.148 260.823 172.088 257.644 173.816C253.216 176.115 249.712 179.865 247.719 184.439C245.98 188.648 245.945 193.19 248.024 197.067C250.102 200.944 253.91 203.422 258.375 204.299C263.293 205.103 268.34 204.262 272.732 201.905C277.124 199.549 280.615 195.809 282.665 191.266C283.084 190.251 283.407 189.2 283.629 188.125C284.856 188.392 286.106 188.536 287.361 188.555C289.788 188.617 292.203 188.177 294.453 187.264C296.704 186.351 298.742 184.984 300.44 183.248C302.139 181.512 303.462 179.445 304.326 177.175C305.19 174.906 305.577 172.482 305.463 170.056C305.395 168.29 305.086 166.541 304.545 164.859C304.808 164.829 305.068 164.795 305.336 164.75C309.264 164.029 312.795 161.903 315.27 158.769C317.744 155.635 318.994 151.707 318.784 147.719C318.673 145.846 318.166 144.018 317.298 142.355C316.43 140.693 315.219 139.232 313.746 138.071Z" fill="#9DC569"/>
<path d="M258.991 190.777L257.775 191.528C257.691 191.579 257.598 191.614 257.502 191.629C257.405 191.644 257.306 191.64 257.211 191.616C257.02 191.569 256.855 191.449 256.751 191.282C256.65 191.112 256.619 190.91 256.663 190.718C256.684 190.622 256.725 190.532 256.782 190.452C256.839 190.372 256.911 190.304 256.994 190.253C260.206 188.304 263.376 186.255 266.494 184.132C269.613 182.009 272.659 179.805 275.646 177.538C282.806 172.085 289.621 166.195 296.053 159.901C302.525 153.566 308.603 146.839 314.252 139.76C314.315 139.678 314.394 139.611 314.484 139.561C314.575 139.511 314.674 139.481 314.777 139.471C314.874 139.46 314.973 139.468 315.068 139.495C315.162 139.523 315.25 139.569 315.326 139.631C315.41 139.691 315.481 139.766 315.535 139.854C315.589 139.941 315.625 140.039 315.64 140.14C315.657 140.337 315.6 140.533 315.48 140.689C309.79 147.812 303.671 154.583 297.158 160.962C290.681 167.299 283.818 173.23 276.609 178.722C273.796 180.86 270.913 182.943 267.981 184.957C265.05 186.972 261.994 188.922 258.991 190.777Z" fill="#519546"/>
<path d="M193.533 129.109C193.358 132.595 194.245 136.051 196.078 139.021C197.91 141.991 200.601 144.335 203.794 145.743C206.988 147.15 210.533 147.555 213.962 146.903C217.39 146.251 220.54 144.574 222.995 142.093L223.035 142.068C225.38 144.652 228.453 146.463 231.849 147.263C235.244 148.062 238.803 147.812 242.054 146.546C245.304 145.28 248.094 143.057 250.054 140.171C252.014 137.285 253.052 133.872 253.031 130.383C256.515 130.551 259.968 129.658 262.933 127.822C265.899 125.986 268.238 123.293 269.64 120.1C271.043 116.906 271.443 113.362 270.789 109.936C270.134 106.51 268.455 103.363 265.974 100.912L265.952 100.876C268.535 98.5318 270.347 95.4587 271.146 92.0629C271.946 88.6671 271.696 85.1086 270.43 81.8579C269.163 78.6072 266.94 75.8173 264.054 73.8573C261.168 71.8972 257.755 70.8592 254.267 70.8806C254.435 67.3966 253.542 63.9436 251.706 60.9779C249.87 58.0123 247.177 55.6736 243.983 54.2711C240.79 52.8686 237.246 52.4682 233.82 53.1229C230.394 53.7775 227.247 55.4564 224.795 57.9377L224.76 57.9597C222.416 55.3736 219.343 53.5602 215.946 52.7595C212.549 51.9589 208.989 52.2088 205.738 53.4761C202.486 54.7435 199.696 56.9685 197.737 59.8567C195.778 62.7448 194.743 66.1598 194.767 69.6496C191.283 69.4814 187.83 70.3744 184.865 72.2105C181.899 74.0467 179.561 76.7395 178.158 79.9331C176.755 83.1268 176.355 86.6708 177.01 90.0969C177.664 93.5229 179.343 96.6697 181.825 99.1212L181.847 99.1568C179.264 101.501 177.453 104.575 176.654 107.971C175.856 111.366 176.106 114.924 177.373 118.175C178.64 121.425 180.863 124.214 183.749 126.174C186.635 128.133 190.048 129.171 193.536 129.149L193.533 129.109Z" fill="#FFD66C"/>
<path d="M207.973 110.342C210.175 114.102 213.613 116.983 217.701 118.493C221.788 120.002 226.273 120.048 230.391 118.623C234.508 117.197 238.004 114.387 240.283 110.673C242.561 106.958 243.482 102.569 242.887 98.2522C242.292 93.9354 240.219 89.9584 237.02 86.9987C233.822 84.0391 229.697 82.2799 225.347 82.0208C220.997 81.7618 216.692 83.0189 213.165 85.5781C209.638 88.1373 207.107 91.8401 206.004 96.0558C205.375 98.4493 205.225 100.944 205.563 103.395C205.9 105.847 206.72 108.208 207.973 110.342Z" fill="#FFF9E9"/>
<path d="M173.245 233.052C170.493 231.575 168.378 229.139 167.303 226.207C166.26 223.438 166.327 220.373 167.491 217.653C168.503 215.415 170.214 213.566 172.366 212.382C174.612 211.135 177.184 210.598 179.742 210.843C178.424 207.397 177.908 203.695 178.233 200.02C178.565 196.338 179.789 192.833 182.059 190.341C184.668 187.52 188.14 185.644 191.931 185.01C193.863 184.651 195.838 184.583 197.79 184.809C201.773 185.3 205.574 186.766 208.855 189.077C211.896 191.195 214.225 194.184 215.534 197.651C216.279 199.789 216.781 202.004 217.03 204.254C217.284 205.982 217.289 207.738 217.045 209.467C221.067 207.442 225.693 206.964 230.044 208.125C234.15 209.184 237.686 211.793 239.909 215.405C241.667 218.405 242.409 221.893 242.026 225.349C241.643 228.972 240.186 232.398 237.841 235.186L205.54 234.102L173.245 233.052Z" fill="#519546"/>
<path d="M361.04 381.051C361.036 417.087 348.537 452.008 325.673 479.861C302.808 507.715 270.993 526.779 235.648 533.805C200.304 540.831 163.616 535.384 131.837 518.393C100.058 501.401 75.1541 473.916 61.3681 440.621C47.5821 407.326 45.7673 370.281 56.2329 335.798C66.6986 301.315 88.7971 271.528 118.763 251.511C148.729 231.495 184.709 222.488 220.571 226.026C256.433 229.564 289.959 245.427 315.437 270.912C329.917 285.362 341.401 302.531 349.227 321.432C357.053 340.333 361.068 360.594 361.04 381.051Z" fill="#1C2A10"/>
<path d="M96.5042 408.702C96.3516 407.117 95.9478 405.567 95.3078 404.109C94.7097 402.625 93.968 401.178 93.3399 399.706C91.9669 396.558 91.1435 393.197 90.9054 389.771C90.6537 386.393 91.2307 383.005 92.5862 379.901C94.2068 376.556 96.7813 373.765 99.9854 371.88C103.174 370.02 106.739 369.374 109.652 371.126C112.87 373.064 116.686 373.393 120.347 372.568C124.068 371.704 127.464 369.792 130.133 367.059C132.698 364.335 134.718 361.145 136.084 357.662C137.477 354.143 138.54 350.502 139.26 346.787C139.586 344.949 140.124 343.154 140.864 341.44C141.647 339.795 142.766 338.449 144.452 337.815C145.256 337.54 146.104 337.418 146.953 337.456C147.813 337.492 148.67 337.582 149.519 337.725L154.071 338.401L158.617 339.083C160.092 339.31 161.602 339.139 162.989 338.587C164.376 338.035 165.591 337.122 166.507 335.943C167.437 334.78 168.038 333.389 168.246 331.914C168.453 330.439 168.259 328.936 167.685 327.562C166.356 324.469 164.687 321.534 162.708 318.811C160.721 316.057 158.58 313.417 156.296 310.904C152.534 306.717 148.52 302.404 145.362 297.744C142.203 293.085 139.817 288.06 139.314 282.449C139.021 279.124 139.398 275.684 139.494 272.322C139.589 268.961 139.41 265.665 137.986 262.644C137.052 260.793 135.83 259.101 134.368 257.632C132.938 256.112 131.377 254.683 129.971 253.146C129.127 252.233 128.364 251.248 127.692 250.203C127.017 249.17 126.478 248.054 126.089 246.883C94.072 265.791 69.8696 295.522 57.8509 330.71C45.8322 365.897 46.7891 404.222 60.5489 438.766C65.0762 436.851 69.4917 434.683 73.7742 432.27C78.0636 429.859 82.2116 427.205 86.1979 424.32C88.9535 422.42 91.4179 420.129 93.5134 417.519C95.4933 414.893 96.7434 411.956 96.5042 408.702Z" fill="#9DC569"/>
<path d="M219.724 297.796C221.452 298.197 223.199 298.544 224.952 298.831C226.704 299.118 228.469 299.358 230.239 299.537C229.665 305.024 229.093 310.509 228.523 315.992C227.952 321.476 227.382 326.963 226.812 332.454C226.758 332.919 226.758 333.388 226.812 333.853C226.864 334.316 226.981 334.769 227.159 335.199C228.098 337.436 230.114 337.903 232.369 338.082C234.624 338.262 237.118 338.16 239.008 339.249C240.252 345.23 241.796 351.146 243.315 357.074C244.834 363.002 246.342 368.929 247.502 374.917C247.652 375.693 247.933 376.437 248.333 377.118C248.735 377.795 249.27 378.384 249.907 378.847C251.887 380.282 253.878 379.959 255.679 378.847C257.479 377.734 259.07 375.772 260.255 373.972C262.504 370.538 264.755 367.103 267.008 363.666L273.767 353.365C274.365 352.474 274.963 351.571 275.603 350.745C276.247 349.905 277.004 349.158 277.853 348.526C279.743 347.144 282.04 346.6 284.367 346.08C286.693 345.559 289.014 345.045 290.946 343.741C292.815 342.423 294.243 340.572 295.044 338.429C295.889 336.237 296.415 333.934 296.605 331.592C296.832 329.295 296.922 326.945 297.203 324.642C297.413 322.343 298.004 320.096 298.95 317.99C299.698 316.502 300.631 315.113 301.725 313.857C302.796 312.577 303.974 311.369 305.117 310.148C310.969 303.872 316.024 296.896 320.166 289.38C320.926 288.005 321.662 286.599 322.403 285.193C323.145 283.788 323.887 282.382 324.658 281.006C312.73 266.787 298.368 254.803 282.243 245.613C265.767 236.221 247.706 229.936 228.959 227.07C224.421 233.67 220.186 240.469 216.254 247.467C212.322 254.466 208.733 261.626 205.487 268.947L205.44 269.055L205.392 269.157C204.155 271.956 203.553 274.995 203.627 278.055C203.702 281.114 204.452 284.12 205.824 286.856C207.195 289.592 209.155 291.991 211.562 293.881C213.969 295.771 216.764 297.106 219.748 297.79L219.724 297.796Z" fill="#9DC569"/>
</g>
<defs>
<clipPath id="clip0_2405_28607">
<rect y="0.5" width="418" height="280" rx="16" fill="white"/>
</clipPath>
</defs>
</svg>
