<svg width="1000" height="585" viewBox="0 0 1000 585" fill="none" xmlns="http://www.w3.org/2000/svg">
<g clip-path="url(#clip0_2381_24294)">
<rect width="1000" height="585" rx="16" transform="matrix(-1 0 0 1 1000 0)" fill="#DDF0C7"/>
<path d="M629.782 57.3443C628.392 134.302 706.389 79.3007 871.617 201.101C1036.84 322.902 1117.09 143.127 1118.48 66.169C1119.87 -10.789 1011.6 -75.1512 876.649 -77.5881C741.698 -80.0249 631.172 -19.6137 629.782 57.3443Z" fill="#82C512" fill-opacity="0.4"/>
<path d="M679.473 40.4655C678.252 108.101 751.339 59.844 906.42 167.068C1061.5 274.291 1136.57 116.377 1137.79 48.7415C1139.01 -18.8936 1037.4 -75.5753 910.842 -77.8606C784.282 -80.146 680.695 -27.1696 679.473 40.4655Z" fill="#80C212" fill-opacity="0.4"/>
<path d="M408.523 488.277C560.923 483.877 582.69 569.444 574.523 612.777C557.023 761.777 287.523 749.278 176.023 734.778C64.5234 720.278 -40.9766 682.278 -91.9766 571.778C-142.977 461.278 -62.9766 354.778 15.0234 317.278C93.0234 279.778 152.023 353.778 176.023 396.778C200.023 439.778 218.023 493.777 408.523 488.277Z" fill="#81C50E" fill-opacity="0.33"/>
<path d="M382.523 539.277C534.923 534.877 556.69 620.444 548.523 663.777C531.023 812.777 261.523 800.278 150.023 785.778C38.5234 771.278 -66.9766 733.278 -117.977 622.778C-168.977 512.278 -88.9766 405.778 -10.9766 368.278C67.0234 330.778 126.023 404.778 150.023 447.778C174.023 490.778 192.023 544.777 382.523 539.277Z" fill="#81C50E" fill-opacity="0.33"/>
<path d="M965.003 497H785" stroke="#A3C82D" stroke-opacity="0.24" stroke-width="36" stroke-linecap="round"/>
<path d="M785 307H669" stroke="#92B61F" stroke-opacity="0.24" stroke-width="36" stroke-linecap="round"/>
<path d="M685 367H510" stroke="#A7C83F" stroke-opacity="0.24" stroke-width="36" stroke-linecap="round"/>
<path d="M409 307H234" stroke="#A7C83F" stroke-opacity="0.24" stroke-width="36" stroke-linecap="round"/>
<path d="M500 170H325" stroke="#93BB13" stroke-opacity="0.24" stroke-width="36" stroke-linecap="round"/>
<path d="M296 62H121" stroke="#A6CD2A" stroke-opacity="0.24" stroke-width="36" stroke-linecap="round"/>
<path d="M146 245H38" stroke="#92B61F" stroke-opacity="0.24" stroke-width="36" stroke-linecap="round"/>
<path d="M796.553 515.899C789.981 516.756 783.958 512.124 783.101 505.552C782.244 498.98 786.877 492.958 793.448 492.101L796.553 515.899ZM845.5 431.5C845.5 396.154 874.154 367.5 909.5 367.5C944.847 367.5 973.5 396.154 973.5 431.5C973.5 466.846 944.847 495.5 909.5 495.5C874.154 495.5 845.5 466.846 845.5 431.5ZM793.448 492.101C807.626 490.252 830.386 484.577 851.519 473.725C872.799 462.798 890.741 447.517 898.253 427.317L920.748 435.683C910.26 463.883 886.286 482.852 862.482 495.075C838.532 507.373 813.042 513.748 796.553 515.899L793.448 492.101Z" fill="#FFD66C"/>
<path d="M796.553 515.899C789.981 516.756 783.958 512.124 783.101 505.552C782.244 498.98 786.877 492.958 793.448 492.101L796.553 515.899ZM845.5 431.5C845.5 396.154 874.154 367.5 909.5 367.5C944.847 367.5 973.5 396.154 973.5 431.5C973.5 466.846 944.847 495.5 909.5 495.5C874.154 495.5 845.5 466.846 845.5 431.5ZM793.448 492.101C807.626 490.252 830.386 484.577 851.519 473.725C872.799 462.798 890.741 447.517 898.253 427.317L920.748 435.683C910.26 463.883 886.286 482.852 862.482 495.075C838.532 507.373 813.042 513.748 796.553 515.899L793.448 492.101Z" fill="#FFFFFD" fill-opacity="0.8"/>
<path d="M118.069 158C116.403 114.167 144.369 33.3 269.569 60.5" stroke="#9DC569" stroke-width="24" stroke-linecap="round"/>
<path d="M381.126 145C401.103 185.351 428.072 256.816 259.767 281.61C138.865 299.421 231.799 443.501 319.698 409.956" stroke="#9DC569" stroke-width="24" stroke-linecap="round"/>
<path d="M449 351C468.676 351 483.542 176.113 557 170" stroke="#9DC569" stroke-width="24" stroke-linecap="round"/>
<path d="M697.256 165C746.138 165 803.594 225.927 779.205 281.822C740.867 369.689 658.917 295.801 600.449 383.668C553.675 453.961 615.855 492.008 651 497" stroke="#FFD66C" stroke-width="24" stroke-linecap="round"/>
<path d="M697.256 165C746.138 165 803.594 225.927 779.205 281.822C740.867 369.689 658.917 295.801 600.449 383.668C553.675 453.961 615.855 492.008 651 497" stroke="#FFFFFD" stroke-opacity="0.8" stroke-width="24" stroke-linecap="round"/>
<circle cx="108" cy="224" r="40" fill="#95BC63"/>
<circle cx="40" cy="40" r="40" transform="matrix(1 0 0 -1 278 150)" fill="#95BC63"/>
<path d="M317.31 118.398V103.878L317.766 104.166C317.542 104.646 317.19 105.102 316.71 105.534C316.23 105.95 315.67 106.31 315.03 106.614C314.39 106.918 313.702 107.134 312.966 107.262V104.262C313.606 104.166 314.254 103.958 314.91 103.638C315.566 103.318 316.158 102.942 316.686 102.51C317.214 102.062 317.59 101.598 317.814 101.118H320.358V118.398H317.31Z" fill="white"/>
<circle cx="40" cy="40" r="40" transform="matrix(1 0 0 -1 587 202)" fill="#519546"/>
<circle cx="40" cy="40" r="40" transform="matrix(1 0 0 -1 673 558)" fill="#0D0D0D" fill-opacity="0.2"/>
<path d="M714.737 524V519.44L714.881 518.96V509.096L716.081 509.624L708.977 519.152L707.609 518.024H719.801V520.496H706.265V518.12L714.833 506.72H717.929V524H714.737Z" fill="white"/>
<circle cx="627" cy="162" r="46" stroke="#519546" stroke-width="4"/>
<circle cx="384" cy="387" r="40" fill="#95BC63"/>
<path d="M378.04 396V393.528C379.672 392.184 381.032 391.024 382.12 390.048C383.224 389.056 384.104 388.184 384.76 387.432C385.416 386.68 385.88 385.992 386.152 385.368C386.44 384.728 386.584 384.104 386.584 383.496C386.584 382.696 386.36 382.072 385.912 381.624C385.464 381.176 384.84 380.952 384.04 380.952C383.208 380.952 382.528 381.2 382 381.696C381.472 382.176 381.152 382.856 381.04 383.736H377.872C378.048 382.12 378.696 380.84 379.816 379.896C380.936 378.952 382.392 378.48 384.184 378.48C385.96 378.48 387.352 378.944 388.36 379.872C389.384 380.784 389.896 382.056 389.896 383.688C389.896 384.504 389.752 385.296 389.464 386.064C389.192 386.816 388.728 387.608 388.072 388.44C387.432 389.256 386.568 390.16 385.48 391.152C384.408 392.128 383.064 393.24 381.448 394.488L380.704 393.528H390.208V396H378.04Z" fill="white"/>
<path d="M627.179 170.24C625.995 170.24 624.931 170.024 623.987 169.592C623.059 169.16 622.299 168.52 621.707 167.672C621.131 166.824 620.795 165.8 620.699 164.6H623.819C623.963 165.656 624.315 166.448 624.875 166.976C625.435 167.504 626.179 167.768 627.107 167.768C627.939 167.768 628.611 167.536 629.123 167.072C629.651 166.608 629.915 165.944 629.915 165.08C629.915 164.216 629.659 163.52 629.147 162.992C628.651 162.464 627.867 162.2 626.795 162.2H625.043V159.776H626.723C627.667 159.776 628.363 159.552 628.811 159.104C629.275 158.64 629.507 158.048 629.507 157.328C629.507 156.608 629.299 156.032 628.883 155.6C628.483 155.168 627.867 154.952 627.035 154.952C626.267 154.952 625.603 155.184 625.043 155.648C624.499 156.096 624.171 156.768 624.059 157.664H620.891C621.019 156.592 621.347 155.672 621.875 154.904C622.419 154.136 623.139 153.544 624.035 153.128C624.931 152.696 625.963 152.48 627.131 152.48C628.283 152.48 629.283 152.672 630.131 153.056C630.979 153.424 631.635 153.952 632.099 154.64C632.579 155.312 632.819 156.12 632.819 157.064C632.819 157.88 632.635 158.592 632.267 159.2C631.899 159.808 631.419 160.288 630.827 160.64C630.251 160.976 629.643 161.144 629.003 161.144L628.931 160.64C629.827 160.64 630.595 160.848 631.235 161.264C631.875 161.664 632.363 162.208 632.699 162.896C633.051 163.584 633.227 164.36 633.227 165.224C633.227 166.232 632.963 167.12 632.435 167.888C631.923 168.64 631.211 169.224 630.299 169.64C629.387 170.04 628.347 170.24 627.179 170.24Z" fill="white"/>
<path d="M88.116 230V217.04H90.456V230H88.116ZM92.7763 230V220.82H94.9903V222.98H95.0443V230H92.7763ZM99.2203 230V224.204C99.2203 223.64 99.0763 223.214 98.7883 222.926C98.5003 222.638 98.0803 222.494 97.5283 222.494C97.0483 222.494 96.6163 222.602 96.2323 222.818C95.8603 223.034 95.5663 223.334 95.3503 223.718C95.1463 224.102 95.0443 224.546 95.0443 225.05L94.8103 222.854C95.1223 222.182 95.5783 221.648 96.1783 221.252C96.7783 220.844 97.4983 220.64 98.3383 220.64C99.3343 220.64 100.108 220.922 100.66 221.486C101.224 222.05 101.506 222.8 101.506 223.736V230H99.2203ZM107.586 230.18C106.458 230.18 105.624 229.916 105.084 229.388C104.556 228.848 104.292 228.044 104.292 226.976V218.732L106.578 217.886V227.03C106.578 227.474 106.698 227.804 106.938 228.02C107.178 228.236 107.556 228.344 108.072 228.344C108.276 228.344 108.456 228.332 108.612 228.308C108.78 228.272 108.936 228.23 109.08 228.182V229.946C108.936 230.018 108.732 230.072 108.468 230.108C108.204 230.156 107.91 230.18 107.586 230.18ZM102.528 222.602V220.82H109.08V222.602H102.528ZM110.776 230V220.82H112.99V223.034H113.044V230H110.776ZM113.044 225.212L112.81 223.034C113.026 222.254 113.392 221.66 113.908 221.252C114.424 220.844 115.042 220.64 115.762 220.64C116.014 220.64 116.194 220.664 116.302 220.712V222.854C116.242 222.83 116.158 222.818 116.05 222.818C115.942 222.806 115.81 222.8 115.654 222.8C114.778 222.8 114.124 222.992 113.692 223.376C113.26 223.76 113.044 224.372 113.044 225.212ZM121.878 230.18C120.906 230.18 120.048 229.976 119.304 229.568C118.572 229.16 118.002 228.596 117.594 227.876C117.186 227.144 116.982 226.31 116.982 225.374C116.982 224.438 117.186 223.616 117.594 222.908C118.002 222.2 118.572 221.648 119.304 221.252C120.048 220.844 120.906 220.64 121.878 220.64C122.862 220.64 123.72 220.844 124.452 221.252C125.184 221.648 125.754 222.2 126.162 222.908C126.57 223.616 126.774 224.438 126.774 225.374C126.774 226.31 126.564 227.144 126.144 227.876C125.736 228.596 125.166 229.16 124.434 229.568C123.702 229.976 122.85 230.18 121.878 230.18ZM121.878 228.362C122.358 228.362 122.79 228.242 123.174 228.002C123.558 227.75 123.858 227.402 124.074 226.958C124.29 226.502 124.398 225.968 124.398 225.356C124.398 224.456 124.158 223.748 123.678 223.232C123.21 222.716 122.61 222.458 121.878 222.458C121.146 222.458 120.54 222.716 120.06 223.232C119.58 223.748 119.34 224.456 119.34 225.356C119.34 225.968 119.448 226.502 119.664 226.958C119.892 227.402 120.192 227.75 120.564 228.002C120.948 228.242 121.386 228.362 121.878 228.362Z" fill="white"/>
<path d="M913.706 50.0818L914.06 49.9437C914.184 49.8941 914.312 49.841 914.439 49.7808C915.09 49.4765 915.697 49.0857 916.242 48.6189C917.12 47.8883 917.714 46.8731 917.921 45.7498C918.088 44.6265 917.864 43.4799 917.287 42.5017C916.723 41.509 915.877 40.7055 914.857 40.1923C913.944 39.7431 912.924 39.5566 911.91 39.6538C910.879 39.7529 909.891 40.1191 909.045 40.7165C909.601 40.1929 910.072 39.5858 910.44 38.9171C910.922 38.0449 911.166 37.0617 911.149 36.0657C911.109 34.7061 910.609 33.4002 909.732 32.3606C908.816 31.2589 907.577 30.4732 906.19 30.1149C905.502 29.995 904.802 29.9688 904.107 30.037C902.853 30.1319 901.663 30.6288 900.714 31.4538C899.634 32.4781 898.971 33.8662 898.854 35.3502C898.72 37.0123 899.136 38.6725 900.037 40.0754C898.778 39.4042 897.328 39.1806 895.925 39.4413C894.6 39.6818 893.408 40.3956 892.57 41.4497C891.931 42.2808 891.542 43.2776 891.451 44.3223C891.354 45.4036 891.571 46.49 892.078 47.45C892.397 48.057 892.828 48.5988 893.346 49.0475C893.858 49.4897 894.445 49.8375 895.078 50.0747H894.526C893.061 50.0747 891.656 50.6564 890.62 51.6919C889.584 52.7274 889.001 54.132 889 55.5969C889 57.0624 889.582 58.4679 890.618 59.5042C891.655 60.5404 893.06 61.1226 894.526 61.1226H900.069V85H908.035V61.1226H913.572C915.037 61.1226 916.443 60.5404 917.479 59.5042C918.515 58.4679 919.097 57.0624 919.097 55.5969C919.098 54.1554 918.534 52.7711 917.526 51.7403C916.518 50.7096 915.147 50.1142 913.706 50.0818Z" fill="#519546"/>
<path d="M938.706 133.082L939.06 132.944C939.184 132.894 939.312 132.841 939.439 132.781C940.09 132.477 940.697 132.086 941.242 131.619C942.12 130.888 942.714 129.873 942.921 128.75C943.088 127.626 942.864 126.48 942.287 125.502C941.723 124.509 940.877 123.706 939.857 123.192C938.944 122.743 937.924 122.557 936.91 122.654C935.879 122.753 934.891 123.119 934.045 123.716C934.601 123.193 935.072 122.586 935.44 121.917C935.922 121.045 936.166 120.062 936.149 119.066C936.109 117.706 935.609 116.4 934.732 115.361C933.816 114.259 932.577 113.473 931.19 113.115C930.502 112.995 929.802 112.969 929.107 113.037C927.853 113.132 926.663 113.629 925.714 114.454C924.634 115.478 923.971 116.866 923.854 118.35C923.72 120.012 924.136 121.673 925.037 123.075C923.778 122.404 922.328 122.181 920.925 122.441C919.6 122.682 918.408 123.396 917.57 124.45C916.931 125.281 916.542 126.278 916.451 127.322C916.354 128.404 916.571 129.49 917.078 130.45C917.397 131.057 917.828 131.599 918.346 132.048C918.858 132.49 919.445 132.837 920.078 133.075H919.526C918.061 133.075 916.656 133.656 915.62 134.692C914.584 135.727 914.001 137.132 914 138.597C914 140.062 914.582 141.468 915.618 142.504C916.655 143.54 918.06 144.123 919.526 144.123H925.069V168H933.035V144.123H938.572C940.037 144.123 941.443 143.54 942.479 142.504C943.515 141.468 944.097 140.062 944.097 138.597C944.098 137.155 943.534 135.771 942.526 134.74C941.518 133.71 940.147 133.114 938.706 133.082Z" fill="#519546"/>
<path d="M872.706 138.082L873.06 137.944C873.184 137.894 873.312 137.841 873.439 137.781C874.09 137.477 874.697 137.086 875.242 136.619C876.12 135.888 876.714 134.873 876.921 133.75C877.088 132.626 876.864 131.48 876.287 130.502C875.723 129.509 874.877 128.706 873.857 128.192C872.944 127.743 871.924 127.557 870.91 127.654C869.879 127.753 868.891 128.119 868.045 128.716C868.601 128.193 869.072 127.586 869.44 126.917C869.922 126.045 870.166 125.062 870.149 124.066C870.109 122.706 869.609 121.4 868.732 120.361C867.816 119.259 866.577 118.473 865.19 118.115C864.502 117.995 863.802 117.969 863.107 118.037C861.853 118.132 860.663 118.629 859.714 119.454C858.634 120.478 857.971 121.866 857.854 123.35C857.72 125.012 858.136 126.673 859.037 128.075C857.778 127.404 856.328 127.181 854.925 127.441C853.6 127.682 852.408 128.396 851.57 129.45C850.931 130.281 850.542 131.278 850.451 132.322C850.354 133.404 850.571 134.49 851.078 135.45C851.397 136.057 851.828 136.599 852.346 137.048C852.858 137.49 853.445 137.837 854.078 138.075H853.526C852.061 138.075 850.656 138.656 849.62 139.692C848.584 140.727 848.001 142.132 848 143.597C848 145.062 848.582 146.468 849.618 147.504C850.655 148.54 852.06 149.123 853.526 149.123H859.069V173H867.035V149.123H872.572C874.037 149.123 875.443 148.54 876.479 147.504C877.515 146.468 878.097 145.062 878.097 143.597C878.098 142.155 877.534 140.771 876.526 139.74C875.518 138.71 874.147 138.114 872.706 138.082Z" fill="#519546"/>
<path d="M785.706 34.0818L786.06 33.9437C786.184 33.8941 786.312 33.841 786.439 33.7808C787.09 33.4765 787.697 33.0857 788.242 32.6189C789.12 31.8883 789.714 30.8731 789.921 29.7498C790.088 28.6265 789.864 27.4799 789.287 26.5017C788.723 25.509 787.877 24.7055 786.857 24.1923C785.944 23.7431 784.924 23.5566 783.91 23.6538C782.879 23.7529 781.891 24.1191 781.045 24.7165C781.601 24.1929 782.072 23.5858 782.44 22.9171C782.922 22.0449 783.166 21.0617 783.149 20.0657C783.109 18.7061 782.609 17.4002 781.732 16.3606C780.816 15.2589 779.577 14.4732 778.19 14.1149C777.502 13.995 776.802 13.9688 776.107 14.037C774.853 14.1319 773.663 14.6288 772.714 15.4538C771.634 16.4781 770.971 17.8662 770.854 19.3502C770.72 21.0123 771.136 22.6725 772.037 24.0754C770.778 23.4042 769.328 23.1806 767.925 23.4413C766.6 23.6818 765.408 24.3956 764.57 25.4497C763.931 26.2808 763.542 27.2776 763.451 28.3223C763.354 29.4036 763.571 30.49 764.078 31.45C764.397 32.057 764.828 32.5988 765.346 33.0475C765.858 33.4897 766.445 33.8375 767.078 34.0747H766.526C765.061 34.0747 763.656 34.6564 762.62 35.6919C761.584 36.7274 761.001 38.132 761 39.5969C761 41.0624 761.582 42.4679 762.618 43.5042C763.655 44.5404 765.06 45.1226 766.526 45.1226H772.069V69H780.035V45.1226H785.572C787.037 45.1226 788.443 44.5404 789.479 43.5042C790.515 42.4679 791.097 41.0624 791.097 39.5969C791.098 38.1554 790.534 36.7711 789.526 35.7403C788.518 34.7096 787.147 34.1142 785.706 34.0818Z" fill="#519546"/>
<path d="M243.706 526.082L244.06 525.944C244.184 525.894 244.312 525.841 244.439 525.781C245.09 525.477 245.697 525.086 246.242 524.619C247.12 523.888 247.714 522.873 247.921 521.75C248.088 520.626 247.864 519.48 247.287 518.502C246.723 517.509 245.877 516.706 244.857 516.192C243.944 515.743 242.924 515.557 241.91 515.654C240.879 515.753 239.891 516.119 239.045 516.716C239.601 516.193 240.072 515.586 240.44 514.917C240.922 514.045 241.166 513.062 241.149 512.066C241.109 510.706 240.609 509.4 239.732 508.361C238.816 507.259 237.577 506.473 236.19 506.115C235.502 505.995 234.802 505.969 234.107 506.037C232.853 506.132 231.663 506.629 230.714 507.454C229.634 508.478 228.971 509.866 228.854 511.35C228.72 513.012 229.136 514.673 230.037 516.075C228.778 515.404 227.328 515.181 225.925 515.441C224.6 515.682 223.408 516.396 222.57 517.45C221.931 518.281 221.542 519.278 221.451 520.322C221.354 521.404 221.571 522.49 222.078 523.45C222.397 524.057 222.828 524.599 223.346 525.048C223.858 525.49 224.445 525.837 225.078 526.075H224.526C223.061 526.075 221.656 526.656 220.62 527.692C219.584 528.727 219.001 530.132 219 531.597C219 533.062 219.582 534.468 220.618 535.504C221.655 536.54 223.06 537.123 224.526 537.123H230.069V561H238.035V537.123H243.572C245.037 537.123 246.443 536.54 247.479 535.504C248.515 534.468 249.097 533.062 249.097 531.597C249.098 530.155 248.534 528.771 247.526 527.74C246.518 526.71 245.147 526.114 243.706 526.082Z" fill="#519546"/>
<path d="M893.139 87.744L893.399 87.6426C893.49 87.6062 893.584 87.5672 893.678 87.5229C894.155 87.2996 894.6 87.0126 895.001 86.6699C895.646 86.1335 896.082 85.3881 896.234 84.5635C896.356 83.7387 896.192 82.8969 895.768 82.1787C895.354 81.4499 894.733 80.8599 893.984 80.4831C893.314 80.1533 892.565 80.0164 891.821 80.0878C891.064 80.1605 890.338 80.4294 889.717 80.868C890.125 80.4836 890.471 80.0379 890.741 79.5469C891.095 78.9065 891.274 78.1847 891.262 77.4534C891.232 76.4552 890.865 75.4964 890.221 74.7332C889.549 73.9243 888.639 73.3474 887.621 73.0844C887.116 72.9963 886.602 72.9771 886.092 73.0272C885.171 73.0968 884.297 73.4616 883.6 74.0674C882.807 74.8194 882.321 75.8385 882.235 76.9281C882.136 78.1484 882.442 79.3673 883.103 80.3973C882.179 79.9045 881.114 79.7404 880.084 79.9318C879.112 80.1083 878.236 80.6324 877.621 81.4063C877.152 82.0165 876.867 82.7484 876.8 83.5154C876.728 84.3092 876.888 85.1069 877.26 85.8117C877.494 86.2574 877.81 86.6552 878.191 86.9846C878.567 87.3092 878.997 87.5646 879.463 87.7388H879.057C877.981 87.7388 876.95 88.1659 876.189 88.9261C875.428 89.6864 875.001 90.7176 875 91.7931C875 92.8691 875.427 93.901 876.188 94.6618C876.949 95.4227 877.981 95.8501 879.057 95.8501H883.127V113.381H888.976V95.8501H893.04C894.116 95.8501 895.148 95.4227 895.909 94.6618C896.67 93.901 897.097 92.8691 897.097 91.7931C897.098 90.7348 896.684 89.7185 895.944 88.9617C895.204 88.2049 894.197 87.7678 893.139 87.744Z" fill="#519546"/>
<path d="M983.139 72.744L983.399 72.6426C983.49 72.6062 983.584 72.5672 983.678 72.5229C984.155 72.2996 984.6 72.0126 985.001 71.6699C985.646 71.1335 986.082 70.3881 986.234 69.5635C986.356 68.7387 986.192 67.8969 985.768 67.1787C985.354 66.4499 984.733 65.8599 983.984 65.4831C983.314 65.1533 982.565 65.0164 981.821 65.0878C981.064 65.1605 980.338 65.4294 979.717 65.868C980.125 65.4836 980.471 65.0379 980.741 64.5469C981.095 63.9065 981.274 63.1847 981.262 62.4534C981.232 61.4552 980.865 60.4964 980.221 59.7332C979.549 58.9243 978.639 58.3474 977.621 58.0844C977.116 57.9963 976.602 57.9771 976.092 58.0272C975.171 58.0968 974.297 58.4616 973.6 59.0674C972.807 59.8194 972.321 60.8385 972.235 61.9281C972.136 63.1484 972.442 64.3673 973.103 65.3973C972.179 64.9045 971.114 64.7404 970.084 64.9318C969.112 65.1083 968.236 65.6324 967.621 66.4063C967.152 67.0165 966.867 67.7484 966.8 68.5154C966.728 69.3092 966.888 70.1069 967.26 70.8117C967.494 71.2574 967.81 71.6552 968.191 71.9846C968.567 72.3092 968.997 72.5646 969.463 72.7388H969.057C967.981 72.7388 966.95 73.1659 966.189 73.9261C965.428 74.6864 965.001 75.7176 965 76.7931C965 77.8691 965.427 78.901 966.188 79.6618C966.949 80.4227 967.981 80.8501 969.057 80.8501H973.127V98.3808H978.976V80.8501H983.04C984.116 80.8501 985.148 80.4227 985.909 79.6618C986.67 78.901 987.097 77.8691 987.097 76.7931C987.098 75.7348 986.684 74.7185 985.944 73.9617C985.204 73.2049 984.197 72.7678 983.139 72.744Z" fill="#519546"/>
<path d="M796.139 112.744L796.399 112.643C796.49 112.606 796.584 112.567 796.678 112.523C797.155 112.3 797.6 112.013 798.001 111.67C798.646 111.133 799.082 110.388 799.234 109.563C799.356 108.739 799.192 107.897 798.768 107.179C798.354 106.45 797.733 105.86 796.984 105.483C796.314 105.153 795.565 105.016 794.821 105.088C794.064 105.161 793.338 105.429 792.717 105.868C793.125 105.484 793.471 105.038 793.741 104.547C794.095 103.907 794.274 103.185 794.262 102.453C794.232 101.455 793.865 100.496 793.221 99.7332C792.549 98.9243 791.639 98.3474 790.621 98.0844C790.116 97.9963 789.602 97.9771 789.092 98.0272C788.171 98.0968 787.297 98.4616 786.6 99.0674C785.807 99.8194 785.321 100.839 785.235 101.928C785.136 103.148 785.442 104.367 786.103 105.397C785.179 104.905 784.114 104.74 783.084 104.932C782.112 105.108 781.236 105.632 780.621 106.406C780.152 107.017 779.867 107.748 779.8 108.515C779.728 109.309 779.888 110.107 780.26 110.812C780.494 111.257 780.81 111.655 781.191 111.985C781.567 112.309 781.997 112.565 782.463 112.739H782.057C780.981 112.739 779.95 113.166 779.189 113.926C778.428 114.686 778.001 115.718 778 116.793C778 117.869 778.427 118.901 779.188 119.662C779.949 120.423 780.981 120.85 782.057 120.85H786.127V138.381H791.976V120.85H796.04C797.116 120.85 798.148 120.423 798.909 119.662C799.67 118.901 800.097 117.869 800.097 116.793C800.098 115.735 799.684 114.718 798.944 113.962C798.204 113.205 797.197 112.768 796.139 112.744Z" fill="#519546"/>
<path d="M929.856 77.0751L930.069 76.992C930.143 76.9622 930.22 76.9303 930.297 76.894C930.688 76.7111 931.052 76.4761 931.381 76.1954C931.909 75.7561 932.266 75.1457 932.39 74.4703C932.491 73.7948 932.356 73.1054 932.009 72.5172C931.67 71.9203 931.161 71.4372 930.548 71.1285C929.999 70.8584 929.385 70.7464 928.776 70.8048C928.156 70.8643 927.562 71.0846 927.053 71.4438C927.387 71.1289 927.67 70.7639 927.892 70.3618C928.181 69.8374 928.328 69.2462 928.318 68.6473C928.294 67.8297 927.993 67.0445 927.466 66.4194C926.915 65.757 926.17 65.2845 925.336 65.0691C924.923 64.997 924.501 64.9812 924.084 65.0222C923.33 65.0793 922.614 65.3781 922.043 65.8742C921.394 66.4901 920.996 67.3247 920.925 68.217C920.845 69.2165 921.095 70.2147 921.637 71.0582C920.879 70.6547 920.007 70.5203 919.164 70.677C918.367 70.8216 917.651 71.2508 917.147 71.8846C916.762 72.3844 916.529 72.9837 916.474 73.6119C916.415 74.2621 916.546 74.9153 916.851 75.4926C917.043 75.8575 917.301 76.1833 917.613 76.4532C917.921 76.719 918.274 76.9281 918.655 77.0708H918.323C917.442 77.0708 916.597 77.4206 915.974 78.0432C915.351 78.6659 915.001 79.5104 915 80.3913C915 81.2725 915.35 82.1176 915.973 82.7407C916.596 83.3638 917.441 83.7138 918.323 83.7138H921.656V98.0711H926.446V83.7138H929.775C930.656 83.7138 931.501 83.3638 932.124 82.7407C932.747 82.1176 933.097 81.2725 933.097 80.3913C933.098 79.5245 932.758 78.6921 932.153 78.0723C931.547 77.4525 930.722 77.0946 929.856 77.0751Z" fill="#519546"/>
<path d="M838.856 37.0751L839.069 36.992C839.143 36.9622 839.22 36.9303 839.297 36.894C839.688 36.7111 840.052 36.4761 840.381 36.1954C840.909 35.7561 841.266 35.1457 841.39 34.4703C841.491 33.7948 841.356 33.1054 841.009 32.5172C840.67 31.9203 840.161 31.4372 839.548 31.1285C838.999 30.8584 838.385 30.7464 837.776 30.8048C837.156 30.8643 836.562 31.0846 836.053 31.4438C836.387 31.1289 836.67 30.7639 836.892 30.3618C837.181 29.8374 837.328 29.2462 837.318 28.6473C837.294 27.8297 836.993 27.0445 836.466 26.4194C835.915 25.757 835.17 25.2845 834.336 25.0691C833.923 24.997 833.501 24.9812 833.084 25.0222C832.33 25.0793 831.614 25.3781 831.043 25.8742C830.394 26.4901 829.996 27.3247 829.925 28.217C829.845 29.2165 830.095 30.2147 830.637 31.0582C829.879 30.6547 829.007 30.5203 828.164 30.677C827.367 30.8216 826.651 31.2508 826.147 31.8846C825.762 32.3844 825.529 32.9837 825.474 33.6119C825.415 34.2621 825.546 34.9153 825.851 35.4926C826.043 35.8575 826.301 36.1833 826.613 36.4532C826.921 36.719 827.274 36.9281 827.655 37.0708H827.323C826.442 37.0708 825.597 37.4206 824.974 38.0432C824.351 38.6659 824.001 39.5104 824 40.3913C824 41.2725 824.35 42.1176 824.973 42.7407C825.596 43.3638 826.441 43.7138 827.323 43.7138H830.656V58.0711H835.446V43.7138H838.775C839.656 43.7138 840.501 43.3638 841.124 42.7407C841.747 42.1176 842.097 41.2725 842.097 40.3913C842.098 39.5245 841.758 38.6921 841.153 38.0723C840.547 37.4525 839.722 37.0946 838.856 37.0751Z" fill="#519546"/>
<path d="M958.856 33.0751L959.069 32.992C959.143 32.9622 959.22 32.9303 959.297 32.894C959.688 32.7111 960.052 32.4761 960.381 32.1954C960.909 31.7561 961.266 31.1457 961.39 30.4703C961.491 29.7948 961.356 29.1054 961.009 28.5172C960.67 27.9203 960.161 27.4372 959.548 27.1285C958.999 26.8584 958.385 26.7464 957.776 26.8048C957.156 26.8643 956.562 27.0846 956.053 27.4438C956.387 27.1289 956.67 26.7639 956.892 26.3618C957.181 25.8374 957.328 25.2462 957.318 24.6473C957.294 23.8297 956.993 23.0445 956.466 22.4194C955.915 21.757 955.17 21.2845 954.336 21.0691C953.923 20.997 953.501 20.9812 953.084 21.0222C952.33 21.0793 951.614 21.3781 951.043 21.8742C950.394 22.4901 949.996 23.3247 949.925 24.217C949.845 25.2165 950.095 26.2147 950.637 27.0582C949.879 26.6547 949.007 26.5203 948.164 26.677C947.367 26.8216 946.651 27.2508 946.147 27.8846C945.762 28.3844 945.529 28.9837 945.474 29.6119C945.415 30.2621 945.546 30.9153 945.851 31.4926C946.043 31.8575 946.301 32.1833 946.613 32.4532C946.921 32.719 947.274 32.9281 947.655 33.0708H947.323C946.442 33.0708 945.597 33.4206 944.974 34.0432C944.351 34.6659 944.001 35.5104 944 36.3913C944 37.2725 944.35 38.1176 944.973 38.7407C945.596 39.3638 946.441 39.7138 947.323 39.7138H950.656V54.0711H955.446V39.7138H958.775C959.656 39.7138 960.501 39.3638 961.124 38.7407C961.747 38.1176 962.097 37.2725 962.097 36.3913C962.098 35.5245 961.758 34.6921 961.153 34.0723C960.547 33.4525 959.722 33.0946 958.856 33.0751Z" fill="#519546"/>
<path d="M212.706 450.082L213.06 449.944C213.184 449.894 213.312 449.841 213.439 449.781C214.09 449.477 214.697 449.086 215.242 448.619C216.12 447.888 216.714 446.873 216.921 445.75C217.088 444.626 216.864 443.48 216.287 442.502C215.723 441.509 214.877 440.706 213.857 440.192C212.944 439.743 211.924 439.557 210.91 439.654C209.879 439.753 208.891 440.119 208.045 440.716C208.601 440.193 209.072 439.586 209.44 438.917C209.922 438.045 210.166 437.062 210.149 436.066C210.109 434.706 209.609 433.4 208.732 432.361C207.816 431.259 206.577 430.473 205.19 430.115C204.502 429.995 203.802 429.969 203.107 430.037C201.853 430.132 200.663 430.629 199.714 431.454C198.634 432.478 197.971 433.866 197.854 435.35C197.72 437.012 198.136 438.673 199.037 440.075C197.778 439.404 196.328 439.181 194.925 439.441C193.6 439.682 192.408 440.396 191.57 441.45C190.931 442.281 190.542 443.278 190.451 444.322C190.354 445.404 190.571 446.49 191.078 447.45C191.397 448.057 191.828 448.599 192.346 449.048C192.858 449.49 193.445 449.837 194.078 450.075H193.526C192.061 450.075 190.656 450.656 189.62 451.692C188.584 452.727 188.001 454.132 188 455.597C188 457.062 188.582 458.468 189.618 459.504C190.655 460.54 192.06 461.123 193.526 461.123H199.069V485H207.035V461.123H212.572C214.037 461.123 215.443 460.54 216.479 459.504C217.515 458.468 218.097 457.062 218.097 455.597C218.098 454.155 217.534 452.771 216.526 451.74C215.518 450.71 214.147 450.114 212.706 450.082Z" fill="#519546"/>
<path d="M138.706 523.082L139.06 522.944C139.184 522.894 139.312 522.841 139.439 522.781C140.09 522.477 140.697 522.086 141.242 521.619C142.12 520.888 142.714 519.873 142.921 518.75C143.088 517.626 142.864 516.48 142.287 515.502C141.723 514.509 140.877 513.706 139.857 513.192C138.944 512.743 137.924 512.557 136.91 512.654C135.879 512.753 134.891 513.119 134.045 513.716C134.601 513.193 135.072 512.586 135.44 511.917C135.922 511.045 136.166 510.062 136.149 509.066C136.109 507.706 135.609 506.4 134.732 505.361C133.816 504.259 132.577 503.473 131.19 503.115C130.502 502.995 129.802 502.969 129.107 503.037C127.853 503.132 126.663 503.629 125.714 504.454C124.634 505.478 123.971 506.866 123.854 508.35C123.72 510.012 124.136 511.673 125.037 513.075C123.778 512.404 122.328 512.181 120.925 512.441C119.6 512.682 118.408 513.396 117.57 514.45C116.931 515.281 116.542 516.278 116.451 517.322C116.354 518.404 116.571 519.49 117.078 520.45C117.397 521.057 117.828 521.599 118.346 522.048C118.858 522.49 119.445 522.837 120.078 523.075H119.526C118.061 523.075 116.656 523.656 115.62 524.692C114.584 525.727 114.001 527.132 114 528.597C114 530.062 114.582 531.468 115.618 532.504C116.655 533.54 118.06 534.123 119.526 534.123H125.069V558H133.035V534.123H138.572C140.037 534.123 141.443 533.54 142.479 532.504C143.515 531.468 144.097 530.062 144.097 528.597C144.098 527.155 143.534 525.771 142.526 524.74C141.518 523.71 140.147 523.114 138.706 523.082Z" fill="#519546"/>
<path d="M184.139 499.744L184.399 499.643C184.49 499.606 184.584 499.567 184.678 499.523C185.155 499.3 185.6 499.013 186.001 498.67C186.646 498.133 187.082 497.388 187.234 496.563C187.356 495.739 187.192 494.897 186.768 494.179C186.354 493.45 185.733 492.86 184.984 492.483C184.314 492.153 183.565 492.016 182.821 492.088C182.064 492.161 181.338 492.429 180.717 492.868C181.125 492.484 181.471 492.038 181.741 491.547C182.095 490.907 182.274 490.185 182.262 489.453C182.232 488.455 181.865 487.496 181.221 486.733C180.549 485.924 179.639 485.347 178.621 485.084C178.116 484.996 177.602 484.977 177.092 485.027C176.171 485.097 175.297 485.462 174.6 486.067C173.807 486.819 173.321 487.839 173.235 488.928C173.136 490.148 173.442 491.367 174.103 492.397C173.179 491.905 172.114 491.74 171.084 491.932C170.112 492.108 169.236 492.632 168.621 493.406C168.152 494.017 167.867 494.748 167.8 495.515C167.728 496.309 167.888 497.107 168.26 497.812C168.494 498.257 168.81 498.655 169.191 498.985C169.567 499.309 169.997 499.565 170.463 499.739H170.057C168.981 499.739 167.95 500.166 167.189 500.926C166.428 501.686 166.001 502.718 166 503.793C166 504.869 166.427 505.901 167.188 506.662C167.949 507.423 168.981 507.85 170.057 507.85H174.127V525.381H179.976V507.85H184.04C185.116 507.85 186.148 507.423 186.909 506.662C187.67 505.901 188.097 504.869 188.097 503.793C188.098 502.735 187.684 501.718 186.944 500.962C186.204 500.205 185.197 499.768 184.139 499.744Z" fill="#519546"/>
<path d="M151.139 411.744L151.399 411.643C151.49 411.606 151.584 411.567 151.678 411.523C152.155 411.3 152.6 411.013 153.001 410.67C153.646 410.133 154.082 409.388 154.234 408.563C154.356 407.739 154.192 406.897 153.768 406.179C153.354 405.45 152.733 404.86 151.984 404.483C151.314 404.153 150.565 404.016 149.821 404.088C149.064 404.161 148.338 404.429 147.717 404.868C148.125 404.484 148.471 404.038 148.741 403.547C149.095 402.907 149.274 402.185 149.262 401.453C149.232 400.455 148.865 399.496 148.221 398.733C147.549 397.924 146.639 397.347 145.621 397.084C145.116 396.996 144.602 396.977 144.092 397.027C143.171 397.097 142.297 397.462 141.6 398.067C140.807 398.819 140.321 399.839 140.235 400.928C140.136 402.148 140.442 403.367 141.103 404.397C140.179 403.905 139.114 403.74 138.084 403.932C137.112 404.108 136.236 404.632 135.621 405.406C135.152 406.017 134.867 406.748 134.8 407.515C134.728 408.309 134.888 409.107 135.26 409.812C135.494 410.257 135.81 410.655 136.191 410.985C136.567 411.309 136.997 411.565 137.463 411.739H137.057C135.981 411.739 134.95 412.166 134.189 412.926C133.428 413.686 133.001 414.718 133 415.793C133 416.869 133.427 417.901 134.188 418.662C134.949 419.423 135.981 419.85 137.057 419.85H141.127V437.381H146.976V419.85H151.04C152.116 419.85 153.148 419.423 153.909 418.662C154.67 417.901 155.097 416.869 155.097 415.793C155.098 414.735 154.684 413.718 153.944 412.962C153.204 412.205 152.197 411.768 151.139 411.744Z" fill="#519546"/>
<path d="M56.1392 411.744L56.3993 411.643C56.4903 411.606 56.5839 411.567 56.6775 411.523C57.1552 411.3 57.6005 411.013 58.0012 410.67C58.6458 410.133 59.082 409.388 59.2339 408.563C59.3564 407.739 59.1921 406.897 58.7684 406.179C58.354 405.45 57.7333 404.86 56.9844 404.483C56.3138 404.153 55.5646 404.016 54.8207 404.088C54.0635 404.161 53.3383 404.429 52.7168 404.868C53.125 404.484 53.4707 404.038 53.7415 403.547C54.0949 402.907 54.2743 402.185 54.2616 401.453C54.232 400.455 53.8654 399.496 53.2213 398.733C52.549 397.924 51.6391 397.347 50.6207 397.084C50.1159 396.996 49.6015 396.977 49.0916 397.027C48.1708 397.097 47.2971 397.462 46.6002 398.067C45.8072 398.819 45.3208 399.839 45.2349 400.928C45.1364 402.148 45.4416 403.367 46.1035 404.397C45.1789 403.905 44.1143 403.74 43.0842 403.932C42.1116 404.108 41.2363 404.632 40.6214 405.406C40.1518 406.017 39.8666 406.748 39.7996 407.515C39.7279 408.309 39.8878 409.107 40.2599 409.812C40.4944 410.257 40.8101 410.655 41.1909 410.985C41.5669 411.309 41.9975 411.565 42.4626 411.739H42.0569C40.9814 411.739 39.9499 412.166 39.1892 412.926C38.4284 413.686 38.0007 414.718 38 415.793C38 416.869 38.4274 417.901 39.1882 418.662C39.9491 419.423 40.981 419.85 42.0569 419.85H46.1269V437.381H51.9756V419.85H56.0404C57.1164 419.85 58.1483 419.423 58.9091 418.662C59.6699 417.901 60.0973 416.869 60.0973 415.793C60.0976 414.735 59.6835 413.718 58.9437 412.962C58.2039 412.205 57.1973 411.768 56.1392 411.744Z" fill="#519546"/>
<path d="M67.1392 532.744L67.3993 532.643C67.4903 532.606 67.5839 532.567 67.6775 532.523C68.1552 532.3 68.6005 532.013 69.0012 531.67C69.6458 531.133 70.082 530.388 70.2339 529.563C70.3564 528.739 70.1921 527.897 69.7684 527.179C69.354 526.45 68.7333 525.86 67.9844 525.483C67.3138 525.153 66.5646 525.016 65.8207 525.088C65.0635 525.161 64.3383 525.429 63.7168 525.868C64.125 525.484 64.4707 525.038 64.7415 524.547C65.0949 523.907 65.2743 523.185 65.2616 522.453C65.232 521.455 64.8654 520.496 64.2213 519.733C63.549 518.924 62.6391 518.347 61.6207 518.084C61.1159 517.996 60.6015 517.977 60.0916 518.027C59.1708 518.097 58.2971 518.462 57.6002 519.067C56.8072 519.819 56.3208 520.839 56.2349 521.928C56.1364 523.148 56.4416 524.367 57.1035 525.397C56.1789 524.905 55.1143 524.74 54.0842 524.932C53.1116 525.108 52.2363 525.632 51.6214 526.406C51.1518 527.017 50.8666 527.748 50.7996 528.515C50.7279 529.309 50.8878 530.107 51.2599 530.812C51.4944 531.257 51.8101 531.655 52.1909 531.985C52.5669 532.309 52.9975 532.565 53.4626 532.739H53.0569C51.9814 532.739 50.9499 533.166 50.1892 533.926C49.4284 534.686 49.0007 535.718 49 536.793C49 537.869 49.4274 538.901 50.1882 539.662C50.9491 540.423 51.981 540.85 53.0569 540.85H57.1269V558.381H62.9756V540.85H67.0404C68.1164 540.85 69.1483 540.423 69.9091 539.662C70.6699 538.901 71.0973 537.869 71.0973 536.793C71.0976 535.735 70.6835 534.718 69.9437 533.962C69.2039 533.205 68.1973 532.768 67.1392 532.744Z" fill="#519546"/>
<path d="M105.856 442.075L106.069 441.992C106.143 441.962 106.22 441.93 106.297 441.894C106.688 441.711 107.052 441.476 107.381 441.195C107.909 440.756 108.266 440.146 108.39 439.47C108.491 438.795 108.356 438.105 108.009 437.517C107.67 436.92 107.161 436.437 106.548 436.129C105.999 435.858 105.385 435.746 104.776 435.805C104.156 435.864 103.562 436.085 103.053 436.444C103.387 436.129 103.67 435.764 103.892 435.362C104.181 434.837 104.328 434.246 104.318 433.647C104.294 432.83 103.993 432.045 103.466 431.419C102.915 430.757 102.17 430.285 101.336 430.069C100.923 429.997 100.501 429.981 100.084 430.022C99.3297 430.079 98.6142 430.378 98.0434 430.874C97.3939 431.49 96.9956 432.325 96.9252 433.217C96.8446 434.216 97.0945 435.215 97.6366 436.058C96.8794 435.655 96.0075 435.52 95.1639 435.677C94.3673 435.822 93.6505 436.251 93.1469 436.885C92.7623 437.384 92.5287 437.984 92.4739 438.612C92.4152 439.262 92.5461 439.915 92.8508 440.493C93.0429 440.858 93.3015 441.183 93.6133 441.453C93.9212 441.719 94.2739 441.928 94.6548 442.071H94.3226C93.4417 442.071 92.5969 442.421 91.9739 443.043C91.3509 443.666 91.0006 444.51 91 445.391C91 446.272 91.35 447.118 91.9731 447.741C92.5963 448.364 93.4414 448.714 94.3226 448.714H97.6558V463.071H102.446V448.714H105.775C106.656 448.714 107.501 448.364 108.124 447.741C108.747 447.118 109.097 446.272 109.097 445.391C109.098 444.525 108.758 443.692 108.153 443.072C107.547 442.453 106.722 442.095 105.856 442.075Z" fill="#519546"/>
<path d="M96.8557 490.075L97.0687 489.992C97.1432 489.962 97.2199 489.93 97.2966 489.894C97.6878 489.711 98.0525 489.476 98.3807 489.195C98.9085 488.756 99.2658 488.146 99.3902 487.47C99.4905 486.795 99.356 486.105 99.009 485.517C98.6696 484.92 98.1613 484.437 97.5479 484.129C96.9987 483.858 96.3851 483.746 95.7759 483.805C95.1557 483.864 94.5618 484.085 94.0528 484.444C94.3871 484.129 94.6702 483.764 94.892 483.362C95.1815 482.837 95.3283 482.246 95.318 481.647C95.2937 480.83 94.9935 480.045 94.466 479.419C93.9154 478.757 93.1702 478.285 92.3362 478.069C91.9227 477.997 91.5015 477.981 91.0838 478.022C90.3297 478.079 89.6142 478.378 89.0434 478.874C88.3939 479.49 87.9956 480.325 87.9252 481.217C87.8446 482.216 88.0945 483.215 88.6366 484.058C87.8794 483.655 87.0075 483.52 86.1639 483.677C85.3673 483.822 84.6505 484.251 84.1469 484.885C83.7623 485.384 83.5287 485.984 83.4739 486.612C83.4152 487.262 83.5461 487.915 83.8508 488.493C84.0429 488.858 84.3015 489.183 84.6133 489.453C84.9212 489.719 85.2739 489.928 85.6548 490.071H85.3226C84.4417 490.071 83.5969 490.421 82.9739 491.043C82.3509 491.666 82.0006 492.51 82 493.391C82 494.272 82.35 495.118 82.9731 495.741C83.5963 496.364 84.4414 496.714 85.3226 496.714H88.6558V511.071H93.4458V496.714H96.7748C97.656 496.714 98.5011 496.364 99.1242 495.741C99.7473 495.118 100.097 494.272 100.097 493.391C100.098 492.525 99.7584 491.692 99.1526 491.072C98.5467 490.453 97.7222 490.095 96.8557 490.075Z" fill="#519546"/>
<path d="M143.856 464.075L144.069 463.992C144.143 463.962 144.22 463.93 144.297 463.894C144.688 463.711 145.052 463.476 145.381 463.195C145.909 462.756 146.266 462.146 146.39 461.47C146.491 460.795 146.356 460.105 146.009 459.517C145.67 458.92 145.161 458.437 144.548 458.129C143.999 457.858 143.385 457.746 142.776 457.805C142.156 457.864 141.562 458.085 141.053 458.444C141.387 458.129 141.67 457.764 141.892 457.362C142.181 456.837 142.328 456.246 142.318 455.647C142.294 454.83 141.993 454.045 141.466 453.419C140.915 452.757 140.17 452.285 139.336 452.069C138.923 451.997 138.501 451.981 138.084 452.022C137.33 452.079 136.614 452.378 136.043 452.874C135.394 453.49 134.996 454.325 134.925 455.217C134.845 456.216 135.095 457.215 135.637 458.058C134.879 457.655 134.007 457.52 133.164 457.677C132.367 457.822 131.651 458.251 131.147 458.885C130.762 459.384 130.529 459.984 130.474 460.612C130.415 461.262 130.546 461.915 130.851 462.493C131.043 462.858 131.301 463.183 131.613 463.453C131.921 463.719 132.274 463.928 132.655 464.071H132.323C131.442 464.071 130.597 464.421 129.974 465.043C129.351 465.666 129.001 466.51 129 467.391C129 468.272 129.35 469.118 129.973 469.741C130.596 470.364 131.441 470.714 132.323 470.714H135.656V485.071H140.446V470.714H143.775C144.656 470.714 145.501 470.364 146.124 469.741C146.747 469.118 147.097 468.272 147.097 467.391C147.098 466.525 146.758 465.692 146.153 465.072C145.547 464.453 144.722 464.095 143.856 464.075Z" fill="#519546"/>
<ellipse cx="910.853" cy="432.057" rx="47.853" ry="49.0571" fill="#52A537"/>
<mask id="mask0_2381_24294" style="mask-type:alpha" maskUnits="userSpaceOnUse" x="863" y="383" width="96" height="99">
<ellipse cx="910.853" cy="432.057" rx="47.853" ry="49.0571" fill="#2D6F47"/>
</mask>
<g mask="url(#mask0_2381_24294)">
<path d="M902.964 433.556H902.929H902.898C903.306 436.72 903.555 439.904 903.643 443.094C903.781 446.287 903.902 449.479 904.286 452.648C904.64 455.847 905.403 458.985 906.554 461.981C907.735 464.938 909.398 467.636 911.715 469.782C912.824 470.811 914.059 471.687 915.388 472.39C916.716 473.096 918.124 473.63 919.58 473.98C920.905 474.3 922.39 474.274 923.835 474.391C925.281 474.509 926.683 474.735 927.85 475.567C931.485 478.16 931.457 481.861 930.43 485.726C929.404 489.592 927.365 493.619 926.989 496.867C926.703 499.315 927.058 501.838 927.746 504.277C928.456 506.674 929.395 508.994 930.548 511.203C931.53 513.134 932.623 515.004 933.822 516.803C935.027 518.604 936.323 520.33 937.67 522.029C937.923 522.346 938.559 523.149 939.503 524.26C940.446 525.371 941.696 526.794 943.176 528.349C944.655 529.904 946.275 531.506 947.56 532.758C948.844 534.01 949.765 534.878 949.765 534.878L953.082 533.458L956.4 532.029C956.4 532.029 953.011 529.198 948.836 524.898C944.661 520.597 939.692 514.833 936.532 508.963C935.323 506.721 934.578 504.247 934.344 501.696C934.108 499.207 934.393 496.694 935.182 494.327C936.257 491.135 937.323 487.628 937.65 484.148C937.977 480.667 937.559 477.21 935.657 474.127C933.723 471.018 930.707 468.779 927.222 467.866C925.79 467.55 924.343 467.318 922.886 467.169C921.438 466.969 920.019 466.713 918.674 466.111C917.564 465.596 916.553 464.884 915.686 464.006C914.812 463.126 914.054 462.132 913.433 461.049C912.252 458.962 911.417 456.69 910.961 454.323C910.499 451.938 910.226 449.519 910.144 447.089C910.035 444.673 910.02 442.242 909.9 439.826C909.813 437.411 909.526 435.009 909.04 432.645L905.998 433.094L902.964 433.556Z" fill="#9DC569"/>
<path d="M903.357 438.478L906.723 441.961L910.087 445.445C910.087 445.445 910.044 443.472 909.969 441.362C909.895 439.251 909.786 437.011 909.654 436.479L907.414 434.624L905.172 432.77L904.266 435.615L903.357 438.478Z" fill="#1C2A10"/>
<path d="M891.021 415.587C889.794 415.26 888.5 415.298 887.294 415.699C886.117 416.084 885.083 416.829 884.329 417.833C883.539 418.907 883.081 420.199 883.013 421.542C882.918 422.925 883.357 424.291 884.234 425.346C884.891 426.104 885.744 426.656 886.694 426.939C887.692 427.238 888.746 427.279 889.762 427.057C888.35 427.367 887.093 428.19 886.224 429.373C885.371 430.532 884.963 431.971 885.077 433.418C885.201 434.871 885.834 436.229 886.861 437.239C887.848 438.229 889.162 438.802 890.542 438.847C891.81 438.852 893.04 438.402 894.018 437.574C894.543 437.154 895.008 436.659 895.397 436.105C895.464 436.879 895.642 437.638 895.924 438.359C896.432 439.738 897.373 440.903 898.6 441.672C899.813 442.397 901.214 442.722 902.614 442.601C904.028 442.502 905.358 441.881 906.359 440.852C907.061 440.099 907.556 439.169 907.792 438.156C907.939 437.551 908.008 436.928 907.999 436.304C908.721 437.671 909.775 438.823 911.058 439.65C912.235 440.419 913.619 440.79 915.012 440.708C915.683 440.665 916.343 440.522 916.974 440.285C918.077 439.884 919.018 439.117 919.649 438.106C920.298 437.015 920.558 435.727 920.386 434.461C920.311 433.807 920.143 433.167 919.887 432.562C921.223 433.327 922.785 433.564 924.28 433.23C925.695 432.926 926.942 432.077 927.763 430.858C928.516 429.687 928.807 428.268 928.578 426.886C928.384 425.572 927.817 424.345 926.946 423.359C926.337 422.692 925.591 422.172 924.761 421.836C924.239 421.622 923.693 421.474 923.136 421.395C923.753 421.118 924.331 420.759 924.856 420.325C925.666 419.673 926.288 418.809 926.657 417.824C927.273 416.119 927.007 414.144 926.135 412.468C925.715 411.62 925.132 410.868 924.421 410.256C923.711 409.645 922.887 409.186 922 408.908C920.649 408.551 919.221 408.654 917.931 409.202C917.201 409.496 916.514 409.892 915.89 410.378C916.105 409.608 916.223 408.813 916.24 408.012C916.282 406.797 915.993 405.593 915.405 404.537C914.298 402.618 912.139 401.421 909.851 401.092C907.563 400.763 905.14 401.307 903.503 402.871C902.533 403.831 901.865 405.066 901.585 406.419C901.397 407.254 901.316 408.11 901.344 408.967C900.762 407.716 899.873 406.642 898.763 405.851C897.71 405.096 896.461 404.68 895.176 404.658C893.429 404.678 891.751 405.362 890.468 406.577C889.203 407.753 888.386 409.355 888.461 411.031C888.512 412.169 888.91 413.261 889.599 414.155C890.011 414.694 890.489 415.175 891.021 415.587Z" fill="#FFD867"/>
<path d="M902.379 417.631C901.458 417.101 900.432 416.787 899.377 416.714C898.849 416.678 898.319 416.76 897.824 416.954C897.329 417.147 896.881 417.449 896.51 417.837C896.008 418.355 895.676 419.02 895.559 419.741C895.442 420.461 895.546 421.201 895.856 421.858C896.141 422.527 896.588 423.111 897.154 423.553C897.721 423.996 898.388 424.282 899.093 424.386C899.019 424.386 898.87 424.515 898.726 424.68C898.583 424.845 898.44 425.006 898.408 425.053C898.066 425.429 897.806 425.875 897.644 426.361C897.481 426.847 897.421 427.363 897.468 427.875C897.52 428.386 897.682 428.879 897.942 429.319C898.202 429.758 898.554 430.132 898.973 430.415C899.816 431.003 900.92 431.065 901.961 430.797C902.973 430.548 903.886 429.988 904.579 429.192C904.886 428.785 905.166 428.357 905.416 427.91C905.668 427.475 905.852 427.123 905.852 427.123C906.523 428.366 906.939 429.069 907.191 429.474C907.287 429.642 907.399 429.801 907.523 429.948C907.862 430.269 908.242 430.54 908.653 430.753C909.431 431.184 910.324 431.347 911.199 431.217C911.428 431.179 911.652 431.12 911.87 431.041C912.436 430.831 912.95 430.497 913.374 430.06C913.799 429.624 914.125 429.096 914.328 428.516C914.507 428.061 914.586 427.572 914.558 427.083C914.531 426.593 914.398 426.116 914.17 425.685C913.956 425.335 913.713 425.005 913.445 424.698C913.189 424.404 912.977 424.177 912.977 424.177L913.367 424.074L913.711 423.98C914.218 423.831 914.691 423.579 915.101 423.24C915.512 422.901 915.852 422.481 916.103 422.005C916.366 421.531 916.532 421.006 916.591 420.464C916.649 419.922 916.599 419.373 916.444 418.851C916.248 418.227 915.89 417.669 915.409 417.236C914.927 416.804 914.341 416.514 913.711 416.396C913.082 416.261 912.432 416.265 911.805 416.407C911.178 416.55 910.587 416.828 910.073 417.222C910.136 417.011 910.183 416.795 910.213 416.576C910.253 416.284 910.263 415.988 910.245 415.694C910.18 414.865 909.881 414.073 909.384 413.416C909.13 413.066 908.83 412.754 908.493 412.487C907.823 411.983 907.04 411.663 906.216 411.555C905.334 411.424 904.436 411.623 903.687 412.116C903.051 412.561 902.562 413.194 902.285 413.93C902.132 414.306 902.03 414.702 901.984 415.106C901.962 415.344 901.962 415.583 901.984 415.82C901.999 416.005 902.026 416.189 902.064 416.37C902.081 416.476 902.113 416.773 902.164 417.052C902.216 417.331 902.288 417.581 902.379 417.631Z" fill="#F9822B"/>
<path d="M924.501 469.029C924.501 469.029 924.444 463.696 924.92 457.106C925.396 450.516 926.408 442.667 928.547 437.623C929.028 436.432 929.894 435.446 931 434.831C932.105 434.215 933.383 434.008 934.62 434.243C935.861 434.434 936.999 435.061 937.839 436.016C938.679 436.971 939.17 438.196 939.228 439.481C939.309 441.161 939.151 442.844 938.761 444.478C938.203 446.847 937.416 449.152 936.409 451.359L932.647 461.186L928.88 471.033C928.527 470.767 928.154 470.53 927.764 470.325C926.728 469.768 925.633 469.333 924.501 469.029Z" fill="#9DC569"/>
</g>
<path d="M870.132 354V341.04H872.472V354H870.132ZM871.248 348.798V346.944H878.538V348.798H871.248ZM871.248 342.894V341.04H878.97V342.894H871.248ZM880.733 354V344.82H883.001V354H880.733ZM880.625 343.308V340.806H883.091V343.308H880.625ZM885.409 354V344.82H887.623V346.98H887.677V354H885.409ZM891.853 354V348.204C891.853 347.64 891.709 347.214 891.421 346.926C891.133 346.638 890.713 346.494 890.161 346.494C889.681 346.494 889.249 346.602 888.865 346.818C888.493 347.034 888.199 347.334 887.983 347.718C887.779 348.102 887.677 348.546 887.677 349.05L887.443 346.854C887.755 346.182 888.211 345.648 888.811 345.252C889.411 344.844 890.131 344.64 890.971 344.64C891.967 344.64 892.741 344.922 893.293 345.486C893.857 346.05 894.139 346.8 894.139 347.736V354H891.853ZM901.979 354C901.919 353.76 901.871 353.496 901.835 353.208C901.811 352.92 901.799 352.572 901.799 352.164H901.727V347.808C901.727 347.328 901.589 346.968 901.313 346.728C901.049 346.476 900.641 346.35 900.089 346.35C899.549 346.35 899.117 346.452 898.793 346.656C898.481 346.848 898.289 347.13 898.217 347.502H896.039C896.135 346.65 896.543 345.96 897.263 345.432C897.983 344.904 898.949 344.64 900.161 344.64C901.421 344.64 902.375 344.928 903.023 345.504C903.671 346.068 903.995 346.902 903.995 348.006V352.164C903.995 352.452 904.013 352.746 904.049 353.046C904.097 353.346 904.163 353.664 904.247 354H901.979ZM898.793 354.18C897.869 354.18 897.131 353.952 896.579 353.496C896.039 353.028 895.769 352.404 895.769 351.624C895.769 350.784 896.075 350.118 896.687 349.626C897.299 349.134 898.163 348.804 899.279 348.636L902.141 348.204V349.644L899.657 350.022C899.117 350.106 898.709 350.256 898.433 350.472C898.169 350.688 898.037 350.988 898.037 351.372C898.037 351.72 898.163 351.99 898.415 352.182C898.667 352.362 899.015 352.452 899.459 352.452C900.107 352.452 900.647 352.29 901.079 351.966C901.511 351.642 901.727 351.246 901.727 350.778L901.979 352.164C901.739 352.824 901.343 353.328 900.791 353.676C900.251 354.012 899.585 354.18 898.793 354.18ZM906.292 354V341.04H908.56V354H906.292ZM920.496 354.18C919.188 354.18 918.036 353.898 917.04 353.334C916.056 352.758 915.288 351.966 914.736 350.958C914.184 349.95 913.908 348.786 913.908 347.466C913.908 346.158 914.184 345.012 914.736 344.028C915.288 343.032 916.05 342.258 917.022 341.706C918.006 341.142 919.122 340.86 920.37 340.86C921.642 340.86 922.764 341.142 923.736 341.706C924.72 342.258 925.488 343.032 926.04 344.028C926.592 345.024 926.868 346.176 926.868 347.484C926.868 348.36 926.724 349.188 926.436 349.968C926.148 350.736 925.704 351.39 925.104 351.93C924.504 352.47 923.724 352.86 922.764 353.1L920.496 354.18ZM920.37 352.362C921.186 352.362 921.9 352.164 922.512 351.768C923.136 351.36 923.622 350.784 923.97 350.04C924.318 349.296 924.492 348.432 924.492 347.448C924.492 346.512 924.318 345.696 923.97 345C923.634 344.292 923.154 343.746 922.53 343.362C921.918 342.966 921.198 342.768 920.37 342.768C919.554 342.768 918.834 342.966 918.21 343.362C917.598 343.746 917.124 344.286 916.788 344.982C916.452 345.678 916.284 346.5 916.284 347.448C916.284 348.444 916.452 349.314 916.788 350.058C917.136 350.79 917.616 351.36 918.228 351.768C918.852 352.164 919.566 352.362 920.37 352.362ZM920.496 354.18L920.388 352.56L927.48 352.146V354C926.724 354 926.058 354.006 925.482 354.018C924.918 354.042 924.384 354.066 923.88 354.09C923.388 354.114 922.872 354.132 922.332 354.144C921.792 354.168 921.18 354.18 920.496 354.18ZM931.955 354.18C931.319 354.18 930.767 354.048 930.299 353.784C929.843 353.508 929.489 353.136 929.237 352.668C928.997 352.2 928.877 351.672 928.877 351.084V344.82H931.145V350.616C931.145 351.18 931.283 351.606 931.559 351.894C931.847 352.182 932.249 352.326 932.765 352.326C933.233 352.326 933.641 352.218 933.989 352.002C934.349 351.786 934.631 351.486 934.835 351.102C935.051 350.706 935.159 350.262 935.159 349.77L935.393 351.966C935.093 352.638 934.643 353.178 934.043 353.586C933.455 353.982 932.759 354.18 931.955 354.18ZM935.231 354V351.84H935.159V344.82H937.445V354H935.231ZM939.55 354V344.82H941.818V354H939.55ZM939.442 343.308V340.806H941.908V343.308H939.442ZM943.602 354V352.398L948.876 345.738L949.416 346.602H943.764V344.82H951.126V346.422L945.942 352.992L945.42 352.218H951.234V354H943.602Z" fill="#1D1D1D"/>
</g>
<defs>
<clipPath id="clip0_2381_24294">
<rect width="1000" height="585" rx="16" transform="matrix(-1 0 0 1 1000 0)" fill="white"/>
</clipPath>
</defs>
</svg>
