<svg width="45" height="45" viewBox="0 0 45 45" fill="none" xmlns="http://www.w3.org/2000/svg">
<g id="solar:flag-2-bold-duotone">
<g id="Group 21085">
<path id="Vector" fill-rule="evenodd" clip-rule="evenodd" d="M11.0126 2.50629C11.0126 2.1068 10.8539 1.72367 10.5714 1.44118C10.2889 1.1587 9.90579 1 9.50629 1C9.1068 1 8.72367 1.1587 8.44118 1.44118C8.1587 1.72367 8 2.1068 8 2.50629V42.6741C8 43.0736 8.1587 43.4567 8.44118 43.7392C8.72367 44.0217 9.1068 44.1804 9.50629 44.1804C9.90579 44.1804 10.2889 44.0217 10.5714 43.7392C10.8539 43.4567 11.0126 43.0736 11.0126 42.6741V6.22182V2.50629Z" fill="#1C2A10"/>
<path id="Vector_2" d="M25.1879 6.76901L24.3585 6.43762C21.2198 5.18229 17.7838 4.86689 14.4691 5.52983L11.0127 6.22072V26.3046L14.4671 25.6137C17.7825 24.9504 21.2192 25.2658 24.3585 26.5215C27.7598 27.8817 31.5034 28.1354 35.0571 27.2466L35.258 27.1964C35.5315 27.1276 35.7852 26.9959 35.9987 26.8116C36.2122 26.6273 36.3796 26.3956 36.4875 26.135C36.5954 25.8745 36.6409 25.5923 36.6203 25.311C36.5996 25.0297 36.5134 24.7572 36.3686 24.5151L33.2355 19.2913C32.5487 18.1465 32.2052 17.5762 32.1249 16.9556C32.091 16.6956 32.091 16.4323 32.1249 16.1723C32.2052 15.5517 32.5487 14.9793 33.2355 13.8365L35.8023 9.55866C35.9516 9.31001 36.0238 9.02266 36.0098 8.73295C35.9957 8.44325 35.8961 8.16421 35.7235 7.93115C35.5508 7.69809 35.3129 7.52147 35.0399 7.42364C34.7668 7.32581 34.4709 7.31117 34.1895 7.38157C31.1992 8.12866 28.0495 7.91433 25.1879 6.76901Z" fill="#9DC569"/>
</g>
</g>
</svg>
