<svg width="129" height="123" viewBox="0 0 129 123" fill="none" xmlns="http://www.w3.org/2000/svg">
<g id="Group 21076">
<g id="Group 21028">
<ellipse id="Ellipse 221" cx="64.331" cy="74.6598" rx="64.331" ry="48.1255" fill="#666538"/>
<ellipse id="Ellipse 222" cx="64.331" cy="64.8377" rx="64.331" ry="48.1255" fill="#9DC569"/>
</g>
<g id="Group 21060">
<path id="Vector" d="M82.134 44.7654H76.9414C81.3039 41.8552 84.6144 37.6187 86.3839 32.6822C88.1534 27.7456 88.2878 22.3708 86.7674 17.3519C85.247 12.3331 82.1524 7.93641 77.9409 4.81171C73.7294 1.68701 68.6243 0 63.3802 0C58.1361 0 53.0311 1.68701 48.8196 4.81171C44.6081 7.93641 41.5135 12.3331 39.9931 17.3519C38.4727 22.3708 38.6071 27.7456 40.3766 32.6822C42.1461 37.6187 45.4566 41.8552 49.8191 44.7654H44.6265C42.0672 44.7654 39.6127 45.782 37.803 47.5917C35.9933 49.4015 34.9766 51.8559 34.9766 54.4152C34.9766 56.9746 35.9933 59.429 37.803 61.2387C39.6127 63.0485 42.0672 64.0652 44.6265 64.0652H82.134C84.6934 64.0652 87.1478 63.0485 88.9575 61.2387C90.7673 59.429 91.7839 56.9746 91.7839 54.4152C91.7839 51.8559 90.7673 49.4015 88.9575 47.5917C87.1478 45.782 84.6934 44.7654 82.134 44.7654Z" fill="#9DC569"/>
<path id="Vector_2" d="M64.7731 64.1879H63.3802H61.9873V32.107V0.0372314H63.3802H64.7731V32.107V64.1879Z" fill="#54963E"/>
</g>
</g>
</svg>
