<svg width="8" height="10" viewBox="0 0 8 10" fill="none" xmlns="http://www.w3.org/2000/svg">
<path d="M7.30028 4.0424C7.89138 5.12435 8.11399 6.32156 7.94362 7.50238C7.75981 8.51693 7.18903 9.30513 6.27483 9.63658C5.36063 9.96802 4.28199 9.77805 3.27105 9.196C2.14322 8.47662 1.25427 7.52816 0.688729 6.44078C0.123188 5.3534 -0.100148 4.16323 0.0399021 2.98338C0.228547 1.96883 0.799295 1.17659 1.70866 0.84514C2.61802 0.513693 3.70637 0.707715 4.71732 1.28573C5.86525 1.98868 6.75898 2.94253 7.30028 4.0424Z" fill="#FFD66C"/>
<path d="M6.42018 6.08094L6.38857 6.09683C6.35887 6.10689 6.32689 6.11173 6.29449 6.11105C6.2621 6.11036 6.22995 6.10418 6.19992 6.09286C6.17005 6.08214 6.14277 6.06651 6.11969 6.04689C6.09661 6.02726 6.0782 6.00405 6.06555 5.9786C5.13591 4.08284 3.70471 2.38428 1.88877 1.0193C1.78158 0.938735 1.76082 0.802784 1.84404 0.713979C1.92716 0.625286 2.08257 0.617157 2.18979 0.697451C4.07128 2.10649 5.55388 3.86251 6.51574 5.82343C6.53853 5.8705 6.54131 5.92231 6.52359 5.96966C6.5062 6.01656 6.46954 6.05601 6.42018 6.08094Z" fill="#1C2A10"/>
</svg>
