<svg width="10" height="24" viewBox="0 0 20 24" fill="none" xmlns="http://www.w3.org/2000/svg">
<path d="M18.2516 9.60794C19.7293 12.3128 20.2858 15.3059 19.8599 18.2579C19.4004 20.7943 17.9734 22.7648 15.6879 23.5934C13.4024 24.422 10.7058 23.9471 8.17847 22.4919C5.3589 20.6935 3.13653 18.3224 1.72268 15.6039C0.308825 12.8855 -0.249515 9.91003 0.10061 6.96041C0.572222 4.42403 1.99909 2.44342 4.2725 1.6148C6.54591 0.786185 9.26679 1.27124 11.7941 2.71627C14.664 4.47366 16.8983 6.85827 18.2516 9.60794Z" fill="#FFD66C"/>
<path d="M16.0529 14.6984L15.9739 14.7382C15.8996 14.7633 15.8197 14.7754 15.7387 14.7737C15.6577 14.772 15.5773 14.7565 15.5022 14.7282C15.4276 14.7014 15.3594 14.6624 15.3017 14.6133C15.244 14.5643 15.1979 14.5062 15.1663 14.4426C12.8422 9.70318 9.26422 5.4568 4.72436 2.04435C4.4564 1.84293 4.4045 1.50305 4.61255 1.28104C4.82034 1.05931 5.20888 1.03899 5.47692 1.23972C10.1806 4.76233 13.8871 9.15236 16.2918 14.0547C16.3488 14.1724 16.3557 14.3019 16.3114 14.4203C16.2679 14.5375 16.1763 14.6361 16.0529 14.6984Z" fill="#1C2A10"/>
</svg>
